<svg width="16" height="23" viewBox="0 0 16 23" fill="none" xmlns="http://www.w3.org/2000/svg">
<path fill-rule="evenodd" clip-rule="evenodd" d="M0.625401 19.0943H15.3746C15.7199 19.0943 16 18.844 16 18.5352V0.559105C16 0.250367 15.7199 0 15.3746 0H0.625401C0.280054 0 0 0.250367 0 0.559105V18.5352C0 18.844 0.280054 19.0943 0.625401 19.0943ZM14.7492 17.9761H1.2508V1.11821H14.7492V17.9761Z" fill="white"/>
<path fill-rule="evenodd" clip-rule="evenodd" d="M7.99997 19.0943H15.3746C15.7199 19.0943 16 18.844 16 18.5352V0.559105C16 0.250367 15.7199 0 15.3746 0H7.99997C7.65463 0 7.37457 0.250367 7.37457 0.559105V18.5352C7.37457 18.844 7.65463 19.0943 7.99997 19.0943ZM14.7492 17.9761H8.62537V1.11821H14.7492V17.9761Z" fill="white"/>
<path d="M6.21408 11.4989C5.86874 11.4989 5.58868 11.2485 5.58868 10.9398V9.26922C5.58868 8.96048 5.86874 8.71011 6.21408 8.71011C6.55943 8.71011 6.83949 8.96048 6.83949 9.26922V10.9398C6.83949 11.2486 6.55949 11.4989 6.21408 11.4989Z" fill="white"/>
<path d="M9.83561 11.4989C9.49026 11.4989 9.21021 11.2485 9.21021 10.9398V9.26922C9.21021 8.96048 9.49026 8.71011 9.83561 8.71011C10.181 8.71011 10.461 8.96048 10.461 9.26922V10.9398C10.461 11.2486 10.181 11.4989 9.83561 11.4989Z" fill="white"/>
<path fill-rule="evenodd" clip-rule="evenodd" d="M0.625401 21.9003H15.3746C15.7199 21.9003 16 21.65 16 21.3412V18.5352C16 18.2265 15.7199 17.9761 15.3746 17.9761H0.625401C0.280054 17.9761 0 18.2265 0 18.5352V21.3412C0 21.65 0.280054 21.9003 0.625401 21.9003ZM14.7492 20.7821H1.2508V19.0943H14.7492V20.7821Z" fill="white"/>
<path d="M0.625401 23C0.280054 23 0 22.7496 0 22.4409V21.3412C0 21.0325 0.280054 20.7821 0.625401 20.7821C0.970747 20.7821 1.2508 21.0325 1.2508 21.3412V22.4409C1.2508 22.7496 0.970747 23 0.625401 23Z" fill="white"/>
<path d="M15.3746 23C15.0293 23 14.7492 22.7496 14.7492 22.4409V21.3412C14.7492 21.0325 15.0293 20.7821 15.3746 20.7821C15.72 20.7821 16 21.0325 16 21.3412V22.4409C16 22.7496 15.72 23 15.3746 23Z" fill="white"/>
</svg>
