<svg width="40" height="18" viewBox="0 0 40 18" fill="none" xmlns="http://www.w3.org/2000/svg">
<path fill-rule="evenodd" clip-rule="evenodd" d="M8.28838 0C8.38809 0.797686 8.05572 1.59537 7.59041 2.19364C7.09185 2.7919 6.3274 3.22398 5.52972 3.12427C5.43001 2.35982 5.82885 1.5289 6.26093 1.03034C6.75948 0.465317 7.59041 0.0332369 8.28838 0ZM6.46622 3.72346C6.97153 3.52705 7.59904 3.28314 8.28838 3.32369C8.72046 3.35693 9.98346 3.48988 10.7479 4.6864C10.6814 4.71964 9.25225 5.55056 9.28549 7.27888C9.28549 9.16606 10.7908 9.88247 11.0698 10.0153C11.0954 10.0275 11.1107 10.0347 11.1135 10.0375C11.1135 10.0708 10.8476 11.0014 10.1829 11.9653C9.61786 12.8294 9.01959 13.6271 8.08896 13.6604C7.62617 13.6769 7.31955 13.5455 7.00151 13.4092C6.68 13.2714 6.34682 13.1286 5.82885 13.1286C5.27905 13.1286 4.92799 13.28 4.58882 13.4263C4.29237 13.5542 4.00501 13.6781 3.60198 13.6936C2.70458 13.7268 2.0066 12.7962 1.44158 11.9653C0.245048 10.2702 -0.619112 7.17917 0.577417 5.08525C1.17568 4.02167 2.23926 3.39017 3.40255 3.35693C3.90962 3.35693 4.39545 3.54793 4.8181 3.71409C5.14345 3.842 5.43135 3.95519 5.66266 3.95519C5.87006 3.95519 6.14317 3.84904 6.46622 3.72346Z" fill="black"/>
<path fill-rule="evenodd" clip-rule="evenodd" d="M18.06 0.963871C20.5195 0.963871 22.2146 2.65895 22.2146 5.08525C22.2146 7.54478 20.4863 9.23986 17.9935 9.23986H15.3013V13.5274H13.3403V0.963871H18.06ZM15.3013 7.61125H17.5282C19.2233 7.61125 20.1871 6.68062 20.1871 5.11849C20.1871 3.52311 19.2233 2.62572 17.5282 2.62572H15.2681V7.61125H15.3013ZM26.1365 8.24275C23.9429 8.3757 22.7131 9.37281 22.7131 10.9682C22.7131 12.5968 23.9761 13.7268 25.8374 13.7268C27.0339 13.7268 28.1972 13.0953 28.729 12.065H28.7623V13.5607H30.5571V7.24565C30.5571 5.38438 29.1279 4.22109 26.901 4.22109C24.6409 4.22109 23.2117 5.45085 23.112 7.1127H24.9068C25.073 6.31501 25.7377 5.78322 26.8345 5.78322C27.9646 5.78322 28.6625 6.38149 28.6625 7.41183V8.10981L26.1365 8.24275ZM28.6625 10.1373V9.40605L26.4024 9.53899C25.2724 9.60547 24.6409 10.104 24.6409 10.9017C24.6409 11.6994 25.3056 12.2312 26.3027 12.2312C27.6322 12.2312 28.6625 11.3338 28.6625 10.1373ZM32.2189 15.4219V16.9508C32.3005 16.9671 32.4543 16.9755 32.6054 16.9836C32.7619 16.9921 32.9157 17.0004 32.9833 17.0173C34.8779 17.0173 35.7752 16.3193 36.5729 14.0925L39.9963 4.42051H38.0021L35.6755 11.8988H35.6423L33.3157 4.42051H31.2883L34.612 13.5939C34.612 13.5939 34.4458 14.1257 34.4458 14.1589C34.1466 15.0896 33.6813 15.4552 32.8172 15.4552C32.6842 15.4552 32.3518 15.4552 32.2189 15.4219Z" fill="black"/>
</svg>
