<svg width="23" height="19" viewBox="0 0 23 19" fill="none" xmlns="http://www.w3.org/2000/svg">
<path d="M14.1507 3.35586e-05C14.3858 -0.00134925 14.6117 0.0925667 14.7786 0.261039L22.7384 8.36123C22.9058 8.53022 23 8.76026 23 9.00024C23 9.24022 22.9058 9.47026 22.7384 9.63926L14.7786 17.7394C14.5543 17.9677 14.2273 18.0569 13.9208 17.9733C13.6144 17.8898 13.375 17.6462 13.2929 17.3343C13.2108 17.0225 13.2984 16.6897 13.5228 16.4614L20.8634 9.00024L13.5228 1.53907C13.3553 1.37008 13.2611 1.14003 13.2611 0.900054C13.2611 0.660075 13.3553 0.430032 13.5228 0.261039C13.6897 0.0925666 13.9156 -0.00134929 14.1507 3.35586e-05Z" fill="white"/>
<path d="M0.884419 8.10023L22.1105 8.10023C22.5989 8.10023 22.9949 8.50318 22.9949 9.00025C22.9949 9.49732 22.5989 9.90027 22.1105 9.90027L0.884418 9.90027C0.395967 9.90027 1.94258e-06 9.49731 1.98603e-06 9.00025C2.02949e-06 8.50318 0.395968 8.10023 0.884419 8.10023Z" fill="white"/>
</svg>
