<svg width="36" height="22" viewBox="0 0 36 22" fill="none" xmlns="http://www.w3.org/2000/svg">
<path fill-rule="evenodd" clip-rule="evenodd" d="M34.8472 17.1905V17.6127H34.7702V17.2939L34.6513 17.569H34.5703L34.4514 17.2946V17.6127H34.3733V17.1905H34.4836L34.6101 17.4802L34.7373 17.1905H34.8472ZM34.1497 17.2628V17.6127H34.149H34.0716V17.2628H33.9309V17.1915H34.2905V17.2628H34.1497Z" fill="#F79410"/>
<path d="M22.3508 19.4233H12.8364V2.32468H22.351L22.3508 19.4233Z" fill="#FF5F00"/>
<path d="M13.4397 10.8744C13.4397 7.4059 15.0637 4.31618 17.5926 2.32503C15.6784 0.815611 13.3107 -0.00360158 10.8729 3.83302e-07C4.86784 3.83302e-07 0 4.86854 0 10.8744C0 16.8802 4.86784 21.7487 10.8729 21.7487C13.3108 21.7524 15.6785 20.9331 17.5928 19.4237C15.0641 17.4329 13.4397 14.343 13.4397 10.8744Z" fill="#EB001B"/>
<path d="M35.1869 10.8744C35.1869 16.8802 30.3191 21.7487 24.314 21.7487C21.8759 21.7523 19.5079 20.9331 17.5933 19.4237C20.1229 17.4325 21.7469 14.343 21.7469 10.8744C21.7469 7.40572 20.1229 4.31618 17.5933 2.32503C19.5079 0.815657 21.8758 -0.00353845 24.3138 -2.9243e-08C30.3189 -2.9243e-08 35.1868 4.86854 35.1868 10.8744" fill="#F79E1B"/>
</svg>
