<svg width="24" height="25" viewBox="0 0 24 25" fill="none" xmlns="http://www.w3.org/2000/svg">
<path fill-rule="evenodd" clip-rule="evenodd" d="M22.9999 14.1387C22.9999 12.3528 21.7388 10.905 20.1832 10.905C19.8287 10.9078 19.4781 10.9903 19.1512 11.1478V9.20561C19.1512 4.67378 15.9512 1 12.0037 1C8.05627 1 4.85623 4.67378 4.85623 9.20561V11.1478C4.52935 10.9903 4.17877 10.9078 3.82428 10.905C2.4193 10.9008 1.22647 12.0859 1.02837 13.6827C0.830275 15.2796 1.6875 16.7999 3.03764 17.2461C2.85657 17.9845 2.94193 18.7755 3.27448 19.4408C3.64843 20.1964 4.34455 20.6663 5.10153 20.674V22.2763C5.10398 22.6972 5.25327 23.0995 5.516 23.3931C5.87028 23.7903 6.34887 24.0073 6.84399 23.9951C7.73105 24.0681 8.50579 23.3125 8.58646 22.2957V20.6838H15.4887V22.2763C15.4925 22.695 15.6381 23.0955 15.8947 23.3931C16.2521 23.7909 16.7334 24.0077 17.2311 23.9951C18.1182 24.0681 18.8929 23.3125 18.9736 22.2957V20.674C19.7219 20.658 20.4071 20.1889 20.7753 19.4408C21.1047 18.7707 21.1898 17.9783 21.0121 17.2364C22.1993 16.8234 23.0082 15.5628 22.9999 14.1387ZM5.67671 9.16677C5.67671 5.14443 8.51699 1.88368 12.0206 1.88368C15.5243 1.88368 18.3646 5.14443 18.3646 9.16677V11.7013C18.3263 11.7452 18.2915 11.7933 18.2557 11.8427L18.2557 11.8428C18.2361 11.8698 18.2163 11.8972 18.1954 11.9246C18.1271 11.9918 18.0648 12.0667 18.0093 12.148C17.9366 12.2585 17.8716 12.3754 17.8148 12.4976L17.6794 12.75C17.6279 12.893 17.5828 13.0388 17.5441 13.187C17.5441 13.2311 17.5277 13.2721 17.5105 13.3153C17.4974 13.3482 17.4837 13.3823 17.4764 13.4201C17.4321 13.653 17.4094 13.8906 17.4088 14.129L16.8928 13.9348C15.3083 13.3809 13.6599 13.1058 12.0037 13.1191C10.3588 13.1098 8.7221 13.3847 7.1485 13.9348L6.63253 14.129C6.63012 13.9003 6.60745 13.6726 6.56486 13.4492C6.56486 13.3961 6.54609 13.3501 6.52757 13.3048L6.52757 13.3047C6.51564 13.2755 6.50382 13.2466 6.49719 13.2162C6.45853 13.068 6.41336 12.9221 6.36186 12.7792L6.22652 12.4781C6.17166 12.3547 6.1065 12.2376 6.03197 12.1286C5.99651 12.0762 5.95801 12.0308 5.92011 11.9862C5.89474 11.9562 5.86963 11.9267 5.84588 11.8955L5.67671 11.6819V9.16677ZM3.85812 11.8372C2.75096 11.8372 1.85343 12.8676 1.85343 14.1387C1.84328 15.3137 2.61199 16.3055 3.62974 16.4304H3.86658C4.68892 16.4217 5.4247 15.8419 5.72746 14.9641C5.75211 14.9015 5.77192 14.8365 5.78667 14.7699C5.78319 14.7474 5.78319 14.7244 5.78667 14.7019C5.83099 14.5185 5.85374 14.3291 5.85434 14.1387C5.84522 12.8758 4.95814 11.853 3.85812 11.8372ZM7.77444 22.2957C7.77444 22.7133 7.34305 23.0629 6.84399 23.0629C6.56234 23.0717 6.28894 22.9531 6.08272 22.7327C5.97404 22.6178 5.91262 22.4556 5.91355 22.286V20.6838H7.77444V22.2957ZM17.2142 23.0629C17.7133 23.0629 18.1362 22.7133 18.1362 22.2957L18.0685 20.6838H16.233V22.286C16.2478 22.4664 16.3314 22.63 16.4614 22.7327C16.6655 22.9508 16.9355 23.0692 17.2142 23.0629ZM20.0563 18.9747C19.818 19.4566 19.3718 19.7536 18.889 19.7515H5.14382C4.66107 19.7536 4.21486 19.4566 3.97654 18.9747C3.72421 18.4763 3.67773 17.8751 3.84966 17.3335H4.07804H4.25567C4.33559 17.3198 4.41469 17.3003 4.49251 17.2753L4.66168 17.2267L4.89852 17.1199L5.05078 17.0422L5.27916 16.8965L5.40604 16.8092C5.48574 16.7466 5.56201 16.6785 5.63442 16.6052L5.73592 16.5178L5.94739 16.2556L6.01505 16.1682C6.08384 16.0668 6.14604 15.9597 6.20114 15.8478L6.25189 15.7798C6.31823 15.6548 6.37756 15.5251 6.42952 15.3914C6.44736 15.3477 6.46152 15.3022 6.47182 15.2554C6.52667 15.232 6.58182 15.2083 6.63731 15.1844C6.88129 15.0795 7.13193 14.9716 7.3938 14.8767C10.4029 13.8569 13.6046 13.8569 16.6136 14.8767C16.91 14.9841 17.1919 15.1081 17.4595 15.2257L17.5272 15.2554V15.3525C17.5806 15.5028 17.6428 15.6488 17.7133 15.7895L17.764 15.8769C17.8212 15.9842 17.8833 16.088 17.9501 16.1877L18.0431 16.3042C18.0705 16.3356 18.0965 16.3686 18.1222 16.4012C18.16 16.4493 18.1974 16.4967 18.2377 16.5372L18.3561 16.6441L18.5591 16.8383L18.7029 16.9354C18.732 16.9539 18.7599 16.9739 18.7874 16.9937L18.7875 16.9937C18.832 17.0257 18.8758 17.0571 18.9228 17.0811L19.0836 17.1587L19.3035 17.2656L19.4811 17.3141C19.5589 17.3392 19.638 17.3586 19.7179 17.3724H19.8956H20.124C20.2957 17.8969 20.2618 18.481 20.0309 18.9747H20.0563ZM20.2508 16.4207H20.3946L20.4031 16.4304C21.5056 16.3714 22.3577 15.2976 22.3063 14.0319C22.2549 12.7662 21.3195 11.7879 20.217 11.8469C19.117 11.8628 18.2299 12.8855 18.2208 14.1484C18.2214 14.3451 18.2441 14.541 18.2884 14.731C18.2956 14.7912 18.3098 14.85 18.3307 14.9058C18.6316 15.8223 19.3977 16.4268 20.2508 16.4207Z" fill="#BBBBBB"/>
<path d="M20.1832 10.905V10.805L20.1824 10.805L20.1832 10.905ZM22.9999 14.1387H22.8999L22.8999 14.1393L22.9999 14.1387ZM19.1512 11.1478H19.0512V11.3069L19.1946 11.2379L19.1512 11.1478ZM4.85623 11.1478L4.81283 11.2379L4.95623 11.3069V11.1478H4.85623ZM3.82428 10.905L3.82508 10.805L3.82458 10.805L3.82428 10.905ZM1.02837 13.6827L1.12761 13.695L1.02837 13.6827ZM3.03764 17.2461L3.13476 17.27L3.15677 17.1802L3.06902 17.1512L3.03764 17.2461ZM3.27448 19.4408L3.3641 19.3964L3.36392 19.3961L3.27448 19.4408ZM5.10153 20.674H5.20153V20.5751L5.10255 20.574L5.10153 20.674ZM5.10153 22.2763H5.00153L5.00153 22.2769L5.10153 22.2763ZM5.516 23.3931L5.59063 23.3265L5.59052 23.3264L5.516 23.3931ZM6.84399 23.9951L6.85224 23.8949L6.84153 23.8952L6.84399 23.9951ZM8.58646 22.2957L8.68646 22.3037V22.2957H8.58646ZM8.58646 20.6838V20.5838H8.48646V20.6838H8.58646ZM15.4887 20.6838H15.5887V20.5838H15.4887V20.6838ZM15.4887 22.2763H15.3887L15.3887 22.2772L15.4887 22.2763ZM15.8947 23.3931L15.8189 23.4584L15.8203 23.4599L15.8947 23.3931ZM17.2311 23.9951L17.2394 23.8949L17.2286 23.8952L17.2311 23.9951ZM18.9736 22.2957L19.0736 22.3037V22.2957H18.9736ZM18.9736 20.674L18.9714 20.5741L18.8736 20.5762V20.674H18.9736ZM20.7753 19.4408L20.865 19.4849L20.865 19.4849L20.7753 19.4408ZM21.0121 17.2364L20.9792 17.142L20.8938 17.1717L20.9149 17.2597L21.0121 17.2364ZM18.3646 11.7013L18.44 11.767L18.4646 11.7387V11.7013H18.3646ZM18.2557 11.8427L18.3357 11.9027L18.3367 11.9014L18.2557 11.8427ZM18.2557 11.8428L18.1757 11.7828L18.1747 11.7842L18.2557 11.8428ZM18.1954 11.9246L18.2655 11.9959L18.2706 11.9909L18.2749 11.9852L18.1954 11.9246ZM18.0093 12.148L17.9267 12.0916L17.9258 12.093L18.0093 12.148ZM17.8148 12.4976L17.903 12.5449L17.9054 12.5397L17.8148 12.4976ZM17.6794 12.75L17.5913 12.7028L17.5878 12.7093L17.5853 12.7161L17.6794 12.75ZM17.5441 13.187L17.4473 13.1618L17.4441 13.1742V13.187H17.5441ZM17.5105 13.3153L17.6034 13.3524L17.6034 13.3524L17.5105 13.3153ZM17.4764 13.4201L17.3782 13.4011L17.3782 13.4014L17.4764 13.4201ZM17.4088 14.129L17.3735 14.2226L17.5084 14.2733L17.5088 14.1292L17.4088 14.129ZM16.8928 13.9348L16.928 13.8411L16.9258 13.8404L16.8928 13.9348ZM12.0037 13.1191L12.0032 13.2191L12.0045 13.2191L12.0037 13.1191ZM7.1485 13.9348L7.1155 13.8403L7.11328 13.8412L7.1485 13.9348ZM6.63253 14.129L6.53254 14.13L6.53404 14.2729L6.66776 14.2226L6.63253 14.129ZM6.56486 13.4492H6.46486V13.4587L6.46663 13.468L6.56486 13.4492ZM6.52757 13.3048L6.4339 13.3399L6.43499 13.3426L6.52757 13.3048ZM6.52757 13.3047L6.62124 13.2696L6.62014 13.2669L6.52757 13.3047ZM6.49719 13.2162L6.59498 13.1949L6.59395 13.1909L6.49719 13.2162ZM6.36186 12.7792L6.45621 12.7452L6.45306 12.7382L6.36186 12.7792ZM6.22652 12.4781L6.13513 12.5188L6.13531 12.5191L6.22652 12.4781ZM6.03197 12.1286L5.94918 12.1846L5.94941 12.185L6.03197 12.1286ZM5.92011 11.9862L5.84386 12.0509L5.92011 11.9862ZM5.84588 11.8955L5.92543 11.8349L5.92428 11.8334L5.84588 11.8955ZM5.67671 11.6819H5.57671V11.7167L5.59831 11.7439L5.67671 11.6819ZM1.85343 14.1387L1.95343 14.1396V14.1387H1.85343ZM3.85812 11.8372L3.85955 11.7372H3.85812V11.8372ZM3.62974 16.4304L3.61746 16.5304H3.62974V16.4304ZM3.86658 16.4304V16.5304L3.86764 16.5304L3.86658 16.4304ZM5.72746 14.9641L5.63432 14.9275L5.63293 14.9315L5.72746 14.9641ZM5.78667 14.7699L5.88431 14.7915L5.88837 14.7732L5.8855 14.7546L5.78667 14.7699ZM5.78667 14.7019L5.68913 14.6783L5.68785 14.6866L5.78667 14.7019ZM5.85434 14.1387L5.95435 14.139L5.95434 14.138L5.85434 14.1387ZM6.84399 23.0629V22.9628L6.84086 22.9629L6.84399 23.0629ZM6.08272 22.7327L6.15575 22.6644L6.15537 22.664L6.08272 22.7327ZM5.91355 22.286L6.01355 22.2866V22.286H5.91355ZM5.91355 20.6838V20.5838H5.81355V20.6838H5.91355ZM7.77444 20.6838H7.87444V20.5838H7.77444V20.6838ZM18.1362 22.2957H18.2363L18.2361 22.2915L18.1362 22.2957ZM17.2142 23.0629V22.9629L17.212 22.9629L17.2142 23.0629ZM18.0685 20.6838L18.1684 20.6796L18.1644 20.5838H18.0685V20.6838ZM16.233 20.6838V20.5838H16.133V20.6838H16.233ZM16.233 22.286H16.1327L16.1333 22.2942L16.233 22.286ZM16.4614 22.7327L16.5344 22.6644L16.5293 22.6589L16.5234 22.6543L16.4614 22.7327ZM18.889 19.7515L18.8894 19.6515H18.889V19.7515ZM20.0563 18.9747L20.1459 19.019L20.2173 18.8747H20.0563V18.9747ZM5.14382 19.7515V19.6515L5.14339 19.6515L5.14382 19.7515ZM3.97654 18.9747L4.06618 18.9303L4.06575 18.9295L3.97654 18.9747ZM3.84966 17.3335V17.2335H3.77649L3.75435 17.3033L3.84966 17.3335ZM4.25567 17.3335V17.4335H4.26421L4.27263 17.4321L4.25567 17.3335ZM4.49251 17.2753L4.46491 17.1791L4.46187 17.1801L4.49251 17.2753ZM4.66168 17.2267L4.68927 17.3228L4.69621 17.3208L4.7028 17.3179L4.66168 17.2267ZM4.89852 17.1199L4.93968 17.2112L4.94397 17.209L4.89852 17.1199ZM5.05078 17.0422L5.09644 17.1317L5.10455 17.1265L5.05078 17.0422ZM5.27916 16.8965L5.33296 16.9809L5.33588 16.9789L5.27916 16.8965ZM5.40604 16.8092L5.46287 16.8917L5.46776 16.8878L5.40604 16.8092ZM5.63442 16.6052L5.56896 16.5292L5.56328 16.5349L5.63442 16.6052ZM5.73592 16.5178L5.80117 16.5936L5.80805 16.5877L5.81376 16.5806L5.73592 16.5178ZM5.94739 16.2556L6.02524 16.3184L6.02645 16.3169L5.94739 16.2556ZM6.01505 16.1682L6.09428 16.2296L6.09782 16.2244L6.01505 16.1682ZM6.20114 15.8478L6.12101 15.788L6.1155 15.7953L6.11143 15.8036L6.20114 15.8478ZM6.25189 15.7798L6.33202 15.8396L6.33662 15.8335L6.34023 15.8267L6.25189 15.7798ZM6.42952 15.3914L6.33694 15.3536L6.33632 15.3551L6.42952 15.3914ZM6.47182 15.2554L6.43259 15.1634L6.38523 15.1836L6.37416 15.2339L6.47182 15.2554ZM6.63731 15.1844L6.67683 15.2763L6.63731 15.1844ZM7.3938 14.8767L7.3617 14.782L7.35972 14.7827L7.3938 14.8767ZM16.6136 14.8767L16.6477 14.7827L16.6457 14.782L16.6136 14.8767ZM17.4595 15.2257L17.4193 15.3172L17.4193 15.3173L17.4595 15.2257ZM17.5272 15.2554H17.6272V15.1901L17.5674 15.1639L17.5272 15.2554ZM17.5272 15.3525H17.4272V15.3698L17.433 15.386L17.5272 15.3525ZM17.7133 15.7895L17.6237 15.8344L17.6268 15.8397L17.7133 15.7895ZM17.764 15.8769L17.8523 15.8299L17.8505 15.8267L17.764 15.8769ZM17.9501 16.1877L17.8668 16.2435L17.872 16.2501L17.9501 16.1877ZM18.0431 16.3042L17.9649 16.3666L17.9677 16.3699L18.0431 16.3042ZM18.1222 16.4012L18.2007 16.3393V16.3393L18.1222 16.4012ZM18.2377 16.5372L18.1667 16.6079L18.1707 16.6115L18.2377 16.5372ZM18.3561 16.6441L18.4253 16.5718L18.4231 16.5698L18.3561 16.6441ZM18.5591 16.8383L18.49 16.9105L18.4961 16.9164L18.5032 16.9212L18.5591 16.8383ZM18.7029 16.9354L18.6469 17.0183L18.6491 17.0197L18.7029 16.9354ZM18.7874 16.9937L18.8474 16.9137L18.8457 16.9124L18.7874 16.9937ZM18.7875 16.9937L18.7274 17.0737L18.7292 17.075L18.7875 16.9937ZM18.9228 17.0811L18.8774 17.1701L18.8793 17.1711L18.9228 17.0811ZM19.0836 17.1587L19.1272 17.0688L19.1271 17.0687L19.0836 17.1587ZM19.3035 17.2656L19.2598 17.3555L19.2681 17.3596L19.2771 17.362L19.3035 17.2656ZM19.4811 17.3141L19.5118 17.2188L19.5075 17.2176L19.4811 17.3141ZM19.7179 17.3724L19.701 17.4709L19.7094 17.4724H19.7179V17.3724ZM20.124 17.3724L20.219 17.3413L20.1964 17.2724H20.124V17.3724ZM20.0309 18.9747L19.9403 18.9323L19.8737 19.0747H20.0309V18.9747ZM20.3946 16.4207L20.47 16.355L20.4401 16.3207H20.3946V16.4207ZM20.2508 16.4207V16.3207L20.2501 16.3207L20.2508 16.4207ZM20.4031 16.4304L20.3277 16.4961L20.3597 16.5329L20.4084 16.5303L20.4031 16.4304ZM22.3063 14.0319L22.2064 14.0359L22.3063 14.0319ZM20.217 11.8469L20.2184 11.947L20.2223 11.9468L20.217 11.8469ZM18.2208 14.1484L18.1208 14.1477L18.1208 14.1487L18.2208 14.1484ZM18.2884 14.731L18.3884 14.7192L18.3858 14.7083L18.2884 14.731ZM18.3307 14.9058L18.4258 14.8746L18.4244 14.8707L18.3307 14.9058ZM20.1832 11.005C21.671 11.005 22.8999 12.3946 22.8999 14.1387H23.0999C23.0999 12.311 21.8065 10.805 20.1832 10.805V11.005ZM19.1946 11.2379C19.5085 11.0866 19.8446 11.0077 20.184 11.005L20.1824 10.805C19.8128 10.8079 19.4477 10.8939 19.1078 11.0577L19.1946 11.2379ZM19.0512 9.20561V11.1478H19.2512V9.20561H19.0512ZM12.0037 1.1C15.8834 1.1 19.0512 4.71559 19.0512 9.20561H19.2512C19.2512 4.63196 16.0189 0.9 12.0037 0.9V1.1ZM4.95623 9.20561C4.95623 4.71559 8.12402 1.1 12.0037 1.1V0.9C7.98852 0.9 4.75623 4.63196 4.75623 9.20561H4.95623ZM4.95623 11.1478V9.20561H4.75623V11.1478H4.95623ZM3.82349 11.005C4.16286 11.0077 4.49892 11.0866 4.81283 11.2379L4.89963 11.0577C4.55978 10.8939 4.19468 10.8079 3.82508 10.805L3.82349 11.005ZM1.12761 13.695C1.32084 12.1374 2.4799 11.001 3.82398 11.005L3.82458 10.805C2.35871 10.8006 1.1321 12.0343 0.929133 13.6704L1.12761 13.695ZM3.06902 17.1512C1.77223 16.7226 0.934281 15.2535 1.12761 13.695L0.929133 13.6704C0.726268 15.3057 1.60276 16.8772 3.00625 17.3411L3.06902 17.1512ZM3.36392 19.3961C3.04223 18.7525 2.9592 17.9858 3.13476 17.27L2.94051 17.2223C2.75393 17.9832 2.84162 18.7985 3.18503 19.4855L3.36392 19.3961ZM5.10255 20.574C4.38825 20.5667 3.7237 20.1231 3.3641 19.3964L3.18485 19.4851C3.57315 20.2698 4.30085 20.7659 5.1005 20.774L5.10255 20.574ZM5.20153 22.2763V20.674H5.00153V22.2763H5.20153ZM5.59052 23.3264C5.34523 23.0523 5.20385 22.6741 5.20153 22.2757L5.00153 22.2769C5.00412 22.7204 5.1613 23.1467 5.44148 23.4597L5.59052 23.3264ZM6.84153 23.8952C6.37817 23.9066 5.92703 23.7037 5.59063 23.3265L5.44136 23.4596C5.81353 23.877 6.31956 24.1081 6.84645 24.0951L6.84153 23.8952ZM8.48677 22.2878C8.40943 23.2627 7.67172 23.9629 6.85219 23.8955L6.83579 24.0948C7.79038 24.1733 8.60215 23.3624 8.68615 22.3036L8.48677 22.2878ZM8.48646 20.6838V22.2957H8.68646V20.6838H8.48646ZM15.4887 20.5838H8.58646V20.7838H15.4887V20.5838ZM15.5887 22.2763V20.6838H15.3887V22.2763H15.5887ZM15.9704 23.3278C15.7304 23.0493 15.5923 22.6721 15.5887 22.2754L15.3887 22.2772C15.3927 22.7179 15.5459 23.1416 15.8189 23.4584L15.9704 23.3278ZM17.2286 23.8952C16.7625 23.907 16.3086 23.7041 15.9691 23.3262L15.8203 23.4599C16.1956 23.8777 16.7043 24.1085 17.2337 24.0951L17.2286 23.8952ZM18.8739 22.2878C18.7966 23.2627 18.0589 23.9629 17.2393 23.8955L17.2229 24.0948C18.1775 24.1733 18.9893 23.3624 19.0733 22.3036L18.8739 22.2878ZM18.8736 20.674V22.2957H19.0736V20.674H18.8736ZM20.6855 19.3966C20.3316 20.116 19.6775 20.5589 18.9714 20.5741L18.9757 20.774C19.7664 20.757 20.4827 20.2619 20.865 19.4849L20.6855 19.3966ZM20.9149 17.2597C21.0873 17.9795 21.0044 18.748 20.6855 19.3967L20.865 19.4849C21.2049 18.7934 21.2924 17.9771 21.1094 17.2131L20.9149 17.2597ZM22.8999 14.1393C22.908 15.5281 22.1193 16.7453 20.9792 17.142L21.045 17.3309C22.2792 16.9015 23.1084 15.5975 23.0999 14.1381L22.8999 14.1393ZM12.0206 1.78368C8.44924 1.78368 5.57671 5.10261 5.57671 9.16677H5.77671C5.77671 5.18625 8.58473 1.98368 12.0206 1.98368V1.78368ZM18.4646 9.16677C18.4646 5.10261 15.592 1.78368 12.0206 1.78368V1.98368C15.4566 1.98368 18.2646 5.18625 18.2646 9.16677H18.4646ZM18.4646 11.7013V9.16677H18.2646V11.7013H18.4646ZM18.3367 11.9014C18.373 11.8512 18.4052 11.8069 18.44 11.767L18.2892 11.6356C18.2474 11.6836 18.21 11.7353 18.1747 11.7841L18.3367 11.9014ZM18.3357 11.9028L18.3357 11.9027L18.1757 11.7827L18.1757 11.7828L18.3357 11.9028ZM18.2749 11.9852C18.2967 11.9567 18.3173 11.9283 18.3367 11.9014L18.1747 11.7842C18.155 11.8113 18.1359 11.8377 18.1159 11.864L18.2749 11.9852ZM18.0919 12.2043C18.1438 12.1282 18.202 12.0584 18.2655 11.9959L18.1253 11.8534C18.0522 11.9252 17.9857 12.0051 17.9267 12.0916L18.0919 12.2043ZM17.9054 12.5397C17.9602 12.4219 18.0229 12.3093 18.0929 12.2029L17.9258 12.093C17.8504 12.2077 17.7829 12.3289 17.7241 12.4554L17.9054 12.5397ZM17.7676 12.7973L17.9029 12.5448L17.7266 12.4503L17.5913 12.7028L17.7676 12.7973ZM17.6409 13.2123C17.6788 13.067 17.723 12.924 17.7735 12.7839L17.5853 12.7161C17.5328 12.862 17.4867 13.0107 17.4473 13.1618L17.6409 13.2123ZM17.6034 13.3524C17.6192 13.3127 17.6441 13.2537 17.6441 13.187H17.4441C17.4441 13.2086 17.4363 13.2315 17.4176 13.2782L17.6034 13.3524ZM17.5746 13.4391C17.5798 13.412 17.5898 13.3864 17.6034 13.3524L17.4176 13.2782C17.4049 13.31 17.3876 13.3526 17.3782 13.4011L17.5746 13.4391ZM17.5088 14.1292C17.5094 13.897 17.5315 13.6656 17.5747 13.4388L17.3782 13.4014C17.3327 13.6404 17.3094 13.8842 17.3088 14.1287L17.5088 14.1292ZM16.8576 14.0283L17.3735 14.2226L17.444 14.0354L16.928 13.8412L16.8576 14.0283ZM12.0045 13.2191C13.6491 13.2059 15.2861 13.479 16.8598 14.0292L16.9258 13.8404C15.3306 13.2827 13.6708 13.0058 12.0029 13.0191L12.0045 13.2191ZM7.1815 14.0292C8.74445 13.4829 10.3699 13.2098 12.0032 13.2191L12.0043 13.0191C10.3478 13.0097 8.69974 13.2866 7.11551 13.8404L7.1815 14.0292ZM6.66776 14.2226L7.18373 14.0283L7.11328 13.8412L6.5973 14.0354L6.66776 14.2226ZM6.46663 13.468C6.5081 13.6855 6.53019 13.9073 6.53254 14.13L6.73252 14.1279C6.73005 13.8934 6.7068 13.6597 6.66309 13.4305L6.46663 13.468ZM6.43499 13.3426C6.45447 13.3902 6.46486 13.4186 6.46486 13.4492H6.66486C6.66486 13.3735 6.63771 13.3099 6.62015 13.2669L6.43499 13.3426ZM6.43393 13.3399L6.43394 13.3399L6.6212 13.2696L6.6212 13.2696L6.43393 13.3399ZM6.39948 13.2374C6.40827 13.2778 6.42364 13.3148 6.43499 13.3425L6.62014 13.2669C6.60764 13.2363 6.59937 13.2154 6.5949 13.1949L6.39948 13.2374ZM6.26778 12.8131C6.31825 12.9532 6.36253 13.0961 6.40043 13.2414L6.59395 13.1909C6.55454 13.0398 6.50847 12.8911 6.45593 12.7453L6.26778 12.8131ZM6.13531 12.5191L6.27065 12.8202L6.45306 12.7382L6.31773 12.4371L6.13531 12.5191ZM5.94941 12.185C6.02045 12.2889 6.08267 12.4007 6.13513 12.5188L6.3179 12.4375C6.26064 12.3087 6.19255 12.1863 6.11453 12.0721L5.94941 12.185ZM5.84386 12.0509C5.88217 12.096 5.91721 12.1374 5.94918 12.1846L6.11476 12.0725C6.07581 12.015 6.03385 11.9656 5.99637 11.9215L5.84386 12.0509ZM5.76635 11.9561C5.79194 11.9897 5.81876 12.0213 5.84386 12.0509L5.99637 11.9215C5.97072 11.8912 5.94731 11.8636 5.92542 11.8349L5.76635 11.9561ZM5.59831 11.7439L5.76749 11.9576L5.92428 11.8334L5.75511 11.6198L5.59831 11.7439ZM5.57671 9.16677V11.6819H5.77671V9.16677H5.57671ZM1.95343 14.1387C1.95343 12.9094 2.81871 11.9372 3.85812 11.9372V11.7372C2.68321 11.7372 1.75343 12.8258 1.75343 14.1387H1.95343ZM3.64192 16.3312C2.68503 16.2137 1.94362 15.2749 1.95343 14.1396L1.75344 14.1378C1.74294 15.3525 2.53896 16.3973 3.61755 16.5297L3.64192 16.3312ZM3.86658 16.3304H3.62974V16.5304H3.86658V16.3304ZM5.63293 14.9315C5.3416 15.7761 4.63883 16.3222 3.86551 16.3304L3.86764 16.5304C4.73901 16.5212 5.50779 15.9077 5.822 14.9967L5.63293 14.9315ZM5.68904 14.7483C5.6754 14.8098 5.65711 14.8698 5.63441 14.9275L5.82052 15.0007C5.8471 14.9332 5.86844 14.8632 5.88431 14.7915L5.68904 14.7483ZM5.68785 14.6866C5.6828 14.7192 5.6828 14.7526 5.68785 14.7852L5.8855 14.7546C5.88358 14.7422 5.88358 14.7296 5.88549 14.7172L5.68785 14.6866ZM5.75434 14.1384C5.75377 14.321 5.73193 14.5026 5.68947 14.6784L5.88388 14.7254C5.93004 14.5343 5.95372 14.3371 5.95434 14.139L5.75434 14.1384ZM3.85668 11.9372C4.8902 11.9521 5.74552 12.9179 5.75434 14.1394L5.95434 14.138C5.94492 12.8336 5.02607 11.754 3.85955 11.7372L3.85668 11.9372ZM6.84399 23.1629C7.37881 23.1629 7.87444 22.7862 7.87444 22.2957H7.67444C7.67444 22.6404 7.30729 22.9629 6.84399 22.9629V23.1629ZM6.0097 22.801C6.23399 23.0408 6.53448 23.1726 6.84712 23.1628L6.84086 22.9629C6.5902 22.9708 6.34389 22.8655 6.15574 22.6644L6.0097 22.801ZM5.81355 22.2855C5.81249 22.4788 5.88234 22.6664 6.01007 22.8014L6.15537 22.664C6.06575 22.5693 6.01275 22.4325 6.01355 22.2866L5.81355 22.2855ZM5.81355 20.6838V22.286H6.01355V20.6838H5.81355ZM7.77444 20.5838H5.91355V20.7838H7.77444V20.5838ZM7.87444 22.2957V20.6838H7.67444V22.2957H7.87444ZM18.0362 22.2957C18.0362 22.6415 17.6762 22.9629 17.2142 22.9629V23.1629C17.7503 23.1629 18.2362 22.7851 18.2362 22.2957H18.0362ZM17.9686 20.6879L18.0363 22.2999L18.2361 22.2915L18.1684 20.6796L17.9686 20.6879ZM16.233 20.7838H18.0685V20.5838H16.233V20.7838ZM16.333 22.286V20.6838H16.133V22.286H16.333ZM16.5234 22.6543C16.4173 22.5704 16.3454 22.4335 16.3327 22.2779L16.1333 22.2942C16.1501 22.4994 16.2455 22.6896 16.3994 22.8112L16.5234 22.6543ZM17.212 22.9629C16.9639 22.9685 16.7206 22.8633 16.5344 22.6644L16.3884 22.8011C16.6104 23.0382 16.9071 23.1698 17.2165 23.1629L17.212 22.9629ZM18.8886 19.8515C19.4147 19.8538 19.8931 19.5303 20.1459 19.019L19.9666 18.9303C19.7429 19.3829 19.3289 19.6534 18.8894 19.6515L18.8886 19.8515ZM5.14382 19.8515H18.889V19.6515H5.14382V19.8515ZM3.8869 19.019C4.13974 19.5303 4.61817 19.8538 5.14425 19.8515L5.14339 19.6515C4.70396 19.6534 4.28997 19.3829 4.06618 18.9303L3.8869 19.019ZM3.75435 17.3033C3.57464 17.8693 3.62294 18.4977 3.88732 19.0198L4.06575 18.9295C3.82549 18.455 3.78082 17.8809 3.94497 17.3638L3.75435 17.3033ZM4.07804 17.2335H3.84966V17.4335H4.07804V17.2335ZM4.25567 17.2335H4.07804V17.4335H4.25567V17.2335ZM4.46187 17.1801C4.38849 17.2037 4.31396 17.222 4.23871 17.235L4.27263 17.4321C4.35723 17.4175 4.4409 17.3969 4.52315 17.3705L4.46187 17.1801ZM4.63409 17.1306L4.46492 17.1791L4.5201 17.3714L4.68927 17.3228L4.63409 17.1306ZM4.85741 17.0287L4.62057 17.1356L4.7028 17.3179L4.93964 17.2111L4.85741 17.0287ZM5.00533 16.9531L4.85307 17.0308L4.94397 17.209L5.09623 17.1313L5.00533 16.9531ZM5.22538 16.8122L4.997 16.9579L5.10455 17.1265L5.33293 16.9809L5.22538 16.8122ZM5.34931 16.7268L5.22243 16.8142L5.33588 16.9789L5.46276 16.8915L5.34931 16.7268ZM5.56328 16.5349C5.49378 16.6053 5.42065 16.6706 5.34431 16.7305L5.46776 16.8878C5.55083 16.8227 5.63024 16.7517 5.70556 16.6755L5.56328 16.5349ZM5.67067 16.442L5.56917 16.5294L5.69967 16.681L5.80117 16.5936L5.67067 16.442ZM5.86955 16.1929L5.65808 16.455L5.81376 16.5806L6.02522 16.3184L5.86955 16.1929ZM5.93598 16.107L5.86832 16.1944L6.02645 16.3169L6.09412 16.2295L5.93598 16.107ZM6.11143 15.8036C6.05833 15.9115 5.99844 16.0146 5.93229 16.1121L6.09782 16.2244C6.16924 16.119 6.23375 16.0079 6.29086 15.892L6.11143 15.8036ZM6.17176 15.72L6.12101 15.788L6.28127 15.9076L6.33202 15.8396L6.17176 15.72ZM6.33632 15.3551C6.28575 15.4852 6.22804 15.6114 6.16356 15.7329L6.34023 15.8267C6.40842 15.6982 6.46937 15.5649 6.52273 15.4276L6.33632 15.3551ZM6.37416 15.2339C6.36507 15.2752 6.35259 15.3153 6.33695 15.3536L6.5221 15.4292C6.54213 15.3802 6.55797 15.3292 6.56948 15.2769L6.37416 15.2339ZM6.59779 15.0926C6.54227 15.1165 6.48728 15.1401 6.43259 15.1634L6.51104 15.3474C6.56607 15.3239 6.62136 15.3002 6.67683 15.2763L6.59779 15.0926ZM7.35972 14.7827C7.09466 14.8788 6.84138 14.9878 6.59779 15.0926L6.67683 15.2763C6.9212 15.1712 7.1692 15.0645 7.42789 14.9707L7.35972 14.7827ZM16.6457 14.782C13.6158 13.7552 10.3916 13.7552 7.36171 14.782L7.4259 14.9714C10.4142 13.9587 13.5933 13.9587 16.5816 14.9714L16.6457 14.782ZM17.4998 15.1342C17.2326 15.0167 16.9477 14.8914 16.6477 14.7827L16.5796 14.9707C16.8723 15.0768 17.1513 15.1994 17.4193 15.3172L17.4998 15.1342ZM17.5674 15.1639L17.4997 15.1341L17.4193 15.3173L17.4869 15.347L17.5674 15.1639ZM17.6272 15.3525V15.2554H17.4272V15.3525H17.6272ZM17.8027 15.7447C17.7341 15.6077 17.6735 15.4655 17.6214 15.319L17.433 15.386C17.4878 15.5401 17.5515 15.6899 17.6238 15.8343L17.8027 15.7447ZM17.8505 15.8267L17.7997 15.7393L17.6268 15.8397L17.6775 15.9271L17.8505 15.8267ZM18.0332 16.132C17.9682 16.0351 17.9079 15.9343 17.8523 15.8299L17.6757 15.9239C17.7345 16.0342 17.7983 16.1408 17.867 16.2433L18.0332 16.132ZM18.1213 16.2418L18.0282 16.1253L17.872 16.2501L17.965 16.3666L18.1213 16.2418ZM18.2007 16.3393C18.1753 16.307 18.1478 16.2721 18.1186 16.2385L17.9677 16.3699C17.9932 16.3991 18.0176 16.4301 18.0436 16.4631L18.2007 16.3393ZM18.3086 16.4667C18.2731 16.4311 18.2394 16.3884 18.2007 16.3393L18.0436 16.4631C18.0807 16.5102 18.1217 16.5624 18.1668 16.6078L18.3086 16.4667ZM18.4231 16.5698L18.3047 16.463L18.1707 16.6115L18.2891 16.7183L18.4231 16.5698ZM18.6283 16.766L18.4252 16.5718L18.287 16.7163L18.49 16.9105L18.6283 16.766ZM18.7589 16.8525L18.6151 16.7554L18.5032 16.9212L18.647 17.0183L18.7589 16.8525ZM18.8457 16.9124C18.8185 16.8929 18.7884 16.8713 18.7567 16.8511L18.6491 17.0197C18.6756 17.0366 18.7012 17.0549 18.7292 17.075L18.8457 16.9124ZM18.8475 16.9137L18.8474 16.9137L18.7274 17.0737L18.7275 17.0737L18.8475 16.9137ZM18.9683 16.992C18.9291 16.972 18.8914 16.9452 18.8457 16.9124L18.7292 17.075C18.7726 17.1061 18.8225 17.1421 18.8774 17.1701L18.9683 16.992ZM19.1271 17.0687L18.9664 16.991L18.8793 17.1711L19.04 17.2488L19.1271 17.0687ZM19.3472 17.1756L19.1272 17.0688L19.0399 17.2487L19.2598 17.3555L19.3472 17.1756ZM19.5075 17.2176L19.3298 17.1691L19.2771 17.362L19.4547 17.4106L19.5075 17.2176ZM19.7349 17.2738C19.6597 17.2609 19.5851 17.2425 19.5117 17.2189L19.4505 17.4093C19.5327 17.4358 19.6164 17.4564 19.701 17.4709L19.7349 17.2738ZM19.8956 17.2724H19.7179V17.4724H19.8956V17.2724ZM20.124 17.2724H19.8956V17.4724H20.124V17.2724ZM20.1215 19.017C20.3633 18.5 20.3986 17.8896 20.219 17.3413L20.0289 17.4035C20.1929 17.9042 20.1603 18.462 19.9403 18.9323L20.1215 19.017ZM20.0563 18.8747H20.0309V19.0747H20.0563V18.8747ZM20.3946 16.3207H20.2508V16.5207H20.3946V16.3207ZM20.4785 16.3647L20.47 16.355L20.3192 16.4864L20.3277 16.4961L20.4785 16.3647ZM22.2064 14.0359C22.2561 15.26 21.4334 16.2752 20.3977 16.3306L20.4084 16.5303C21.5778 16.4677 22.4593 15.3351 22.4062 14.0278L22.2064 14.0359ZM20.2223 11.9468C21.2565 11.8915 22.1567 12.8123 22.2064 14.0359L22.4062 14.0278C22.3531 12.72 21.3825 11.6844 20.2117 11.7471L20.2223 11.9468ZM18.3208 14.1491C18.3296 12.9276 19.1849 11.9618 20.2184 11.9469L20.2156 11.747C19.049 11.7637 18.1302 12.8434 18.1208 14.1477L18.3208 14.1491ZM18.3858 14.7083C18.3432 14.5257 18.3213 14.3374 18.3208 14.1481L18.1208 14.1487C18.1214 14.3529 18.145 14.5563 18.1911 14.7538L18.3858 14.7083ZM18.4244 14.8707C18.4063 14.8226 18.394 14.7716 18.3878 14.7193L18.1891 14.7428C18.1972 14.8109 18.2133 14.8775 18.2371 14.941L18.4244 14.8707ZM20.2501 16.3207C19.4477 16.3264 18.7154 15.757 18.4257 14.8746L18.2357 14.937C18.5478 15.8876 19.3478 16.5271 20.2515 16.5207L20.2501 16.3207Z" fill="#979797"/>
</svg>
