<svg width="17" height="20" viewBox="0 0 17 20" fill="none" xmlns="http://www.w3.org/2000/svg">
<path d="M1 4.60002H2.77778H17" stroke="#4A4543" stroke-width="1.6" stroke-linecap="round" stroke-linejoin="round"/>
<path d="M16.0223 4.6C16.0223 4.15817 15.6641 3.8 15.2223 3.8C14.7804 3.8 14.4223 4.15817 14.4223 4.6H16.0223ZM3.57783 4.6C3.57783 4.15817 3.21966 3.8 2.77783 3.8C2.336 3.8 1.97783 4.15817 1.97783 4.6H3.57783ZM4.6445 4.6C4.6445 5.04183 5.00267 5.4 5.4445 5.4C5.88633 5.4 6.2445 5.04183 6.2445 4.6H4.6445ZM11.7556 4.6C11.7556 5.04183 12.1138 5.4 12.5556 5.4C12.9974 5.4 13.3556 5.04183 13.3556 4.6H11.7556ZM14.4223 4.6V17.2H16.0223V4.6H14.4223ZM14.4223 17.2C14.4223 17.7617 13.9752 18.2 13.4445 18.2V19.8C14.8775 19.8 16.0223 18.6265 16.0223 17.2H14.4223ZM13.4445 18.2H4.55561V19.8H13.4445V18.2ZM4.55561 18.2C4.02494 18.2 3.57783 17.7617 3.57783 17.2H1.97783C1.97783 18.6265 3.1226 19.8 4.55561 19.8V18.2ZM3.57783 17.2V4.6H1.97783V17.2H3.57783ZM6.2445 4.6V2.8H4.6445V4.6H6.2445ZM6.2445 2.8C6.2445 2.23832 6.69161 1.8 7.22228 1.8V0.2C5.78927 0.2 4.6445 1.37346 4.6445 2.8H6.2445ZM7.22228 1.8H10.7778V0.2H7.22228V1.8ZM10.7778 1.8C11.3085 1.8 11.7556 2.23832 11.7556 2.8H13.3556C13.3556 1.37346 12.2108 0.2 10.7778 0.2V1.8ZM11.7556 2.8V4.6H13.3556V2.8H11.7556Z" fill="#4A4543"/>
<path d="M7.22228 9.09998V14.5" stroke="#4A4543" stroke-width="1.6" stroke-linecap="round" stroke-linejoin="round"/>
<path d="M10.7777 9.09998V14.5" stroke="#4A4543" stroke-width="1.6" stroke-linecap="round" stroke-linejoin="round"/>
</svg>
