<svg width="7" height="13" viewBox="0 0 7 13" fill="none" xmlns="http://www.w3.org/2000/svg">
<path d="M5.18758 0.691999C5.50492 0.691999 5.79958 0.720333 6.07158 0.776999C6.34358 0.833666 6.58725 0.907333 6.80258 0.997999L6.17358 2.987C6.06025 2.93033 5.93558 2.885 5.79958 2.851C5.67492 2.817 5.51625 2.8 5.32358 2.8C4.99492 2.8 4.73425 2.90767 4.54158 3.123C4.34892 3.327 4.25258 3.616 4.25258 3.99V4.67H6.32658V6.574H4.25258V13H2.02558V6.574H0.529582V4.67H2.02558V3.854C2.02558 3.344 2.09925 2.89633 2.24658 2.511C2.40525 2.11433 2.62625 1.78567 2.90958 1.525C3.19292 1.253 3.52725 1.049 3.91258 0.913C4.29792 0.765666 4.72292 0.691999 5.18758 0.691999Z" fill="#F7A538"/>
</svg>
