<svg width="14" height="14" viewBox="0 0 14 14" fill="none" xmlns="http://www.w3.org/2000/svg">
<path d="M7.12265 6.319H13.0897C13.1237 6.455 13.152 6.61933 13.1747 6.812C13.1973 7.00467 13.2087 7.19733 13.2087 7.39C13.2087 8.172 13.0897 8.90867 12.8517 9.6C12.6137 10.2913 12.2397 10.909 11.7297 11.453C11.1857 12.031 10.534 12.4787 9.77465 12.796C9.01532 13.1133 8.14832 13.272 7.17365 13.272C6.28965 13.272 5.45665 13.1133 4.67465 12.796C3.89265 12.4787 3.21265 12.0367 2.63465 11.47C2.05665 10.9033 1.59765 10.2347 1.25765 9.464C0.917652 8.682 0.747652 7.832 0.747652 6.914C0.747652 5.996 0.917652 5.15167 1.25765 4.381C1.59765 3.599 2.05665 2.92467 2.63465 2.358C3.21265 1.79133 3.89265 1.34933 4.67465 1.032C5.45665 0.714666 6.28965 0.555999 7.17365 0.555999C8.15965 0.555999 9.03799 0.725999 9.80865 1.066C10.5907 1.406 11.2593 1.87633 11.8147 2.477L10.2337 4.024C9.83699 3.60467 9.39499 3.28733 8.90765 3.072C8.42032 2.84533 7.83665 2.732 7.15665 2.732C6.60132 2.732 6.07432 2.834 5.57565 3.038C5.07699 3.23067 4.64065 3.50833 4.26665 3.871C3.89265 4.23367 3.59232 4.67567 3.36565 5.197C3.15032 5.707 3.04265 6.27933 3.04265 6.914C3.04265 7.54867 3.15032 8.12667 3.36565 8.648C3.59232 9.158 3.89265 9.59433 4.26665 9.957C4.65199 10.3197 5.09399 10.603 5.59265 10.807C6.09132 10.9997 6.62399 11.096 7.19065 11.096C7.83665 11.096 8.38065 11.0053 8.82265 10.824C9.27599 10.6313 9.66132 10.3877 9.97865 10.093C10.2053 9.889 10.398 9.634 10.5567 9.328C10.7267 9.01067 10.857 8.65933 10.9477 8.274H7.12265V6.319Z" fill="#F7A538"/>
</svg>
