<svg width="40" height="16" viewBox="0 0 40 16" fill="none" xmlns="http://www.w3.org/2000/svg">
<path fill-rule="evenodd" clip-rule="evenodd" d="M18.9129 7.77555V12.4288H17.4355V0.934674H21.3518C22.2965 0.914574 23.2094 1.27303 23.8878 1.92965C24.5746 2.54774 24.9615 3.43216 24.9464 4.35511C24.9665 5.28476 24.5796 6.17588 23.8878 6.79565C23.2027 7.44891 22.3568 7.77555 21.3518 7.77387L18.9129 7.77555ZM18.9129 2.35008V6.36349H21.3886C21.9381 6.38024 22.4674 6.16416 22.8493 5.76885C23.6248 5.01508 23.6433 3.77387 22.8878 2.99833L22.8747 2.9848L22.8747 2.9848C22.8663 2.97605 22.8582 2.96756 22.8493 2.9598C22.4724 2.55611 21.9397 2.33501 21.3886 2.35008H18.9129ZM30.9347 5.18258C30.3032 4.59967 29.4422 4.30821 28.3501 4.30821C26.9481 4.30821 25.8895 4.82077 25.1759 5.84757L26.4757 6.66667C26.9565 5.97153 27.6098 5.62312 28.4339 5.62312C28.9598 5.61642 29.469 5.80905 29.8593 6.1608C30.2479 6.48241 30.4724 6.96147 30.469 7.46734V7.8057C29.9029 7.48576 29.1793 7.32496 28.3032 7.32496C27.2747 7.32496 26.454 7.56616 25.8392 8.0469C25.2245 8.52764 24.9163 9.1742 24.9163 9.98828C24.9029 10.7303 25.2245 11.4372 25.7907 11.9146C26.3736 12.4288 27.0989 12.6851 27.9649 12.6851C28.9799 12.6851 29.794 12.2362 30.4054 11.3367H30.469V12.4288H31.8811V7.58124C31.8811 6.56616 31.5662 5.76549 30.9347 5.18258ZM26.4389 10.0218C26.4372 10.4037 26.6198 10.7621 26.928 10.9849C27.2546 11.2412 27.66 11.3786 28.0754 11.3702C28.6985 11.3685 29.2965 11.1206 29.7371 10.6801C30.2262 10.2194 30.4707 9.68007 30.4707 9.05863C30.0101 8.69179 29.3685 8.50754 28.5444 8.50754C27.9448 8.50754 27.4439 8.65159 27.0436 8.94137C26.6399 9.23618 26.4389 9.59297 26.4389 10.0218ZM35.0587 15.8961L39.9883 4.56449H38.3803L36.1005 10.2144H36.0687L33.7253 4.56449H32.1206L35.3635 11.9313L33.5344 15.8961H35.0587Z" fill="#5F6368"/>
<path d="M12.9447 6.77052C12.9447 6.31993 12.9079 5.87102 12.8308 5.42714H6.60303V7.96985H10.1692C10.0218 8.79062 9.54608 9.51591 8.85093 9.97655V11.6281H10.9799C12.2261 10.4807 12.9447 8.78057 12.9447 6.77052Z" fill="#4285F4"/>
<path d="M6.60311 13.2245C8.38536 13.2245 9.88619 12.6399 10.98 11.6298L8.85102 9.97823C8.25805 10.3802 7.49591 10.6097 6.60311 10.6097C4.88117 10.6097 3.41886 9.44891 2.89624 7.88442H0.703613V9.58627C1.82422 11.8174 4.1073 13.2245 6.60311 13.2245Z" fill="#34A853"/>
<path d="M2.89615 7.88442C2.61977 7.06533 2.61977 6.17588 2.89615 5.35678V3.65494H0.703518C-0.234506 5.52094 -0.234506 7.72027 0.703518 9.58626L2.89615 7.88442Z" fill="#FBBC04"/>
<path d="M6.60311 2.63149C7.54448 2.61642 8.45403 2.97153 9.13577 3.62144L11.0219 1.73702C9.82589 0.614741 8.24298 -0.00167419 6.60311 0.0167513C4.1073 0.0167513 1.82422 1.42546 0.703613 3.65494L2.89624 5.35678C3.41886 3.7923 4.88117 2.63149 6.60311 2.63149Z" fill="#EA4335"/>
</svg>
