<svg width="20" height="25" viewBox="0 0 20 25" fill="none" xmlns="http://www.w3.org/2000/svg">
<path fill-rule="evenodd" clip-rule="evenodd" d="M19 13.7H17.4413V17.4757H18.1498V19.5352H16.0242V17.4757H16.7327V13.7H13.7782C14.0108 14.3929 14.1303 15.1167 14.1325 15.8453C14.1856 17.6469 13.4062 19.3774 12.0069 20.5649H13.2716C13.8349 20.5959 14.2751 21.048 14.2742 21.5947C14.2742 21.6327 14.2711 21.6417 14.2657 21.6573C14.2569 21.6827 14.2421 21.7257 14.2246 21.9379H14.2777C14.8303 21.9379 15.2803 22.5763 15.2803 23.1118C15.2761 23.3606 15.1662 23.5967 14.9764 23.7644C14.7866 23.932 14.5338 24.0163 14.2777 23.9974H5.72584C5.46976 24.0163 5.21696 23.932 5.02717 23.7644C4.83737 23.5967 4.72742 23.3606 4.72328 23.1118C4.72328 22.5729 5.17319 21.9379 5.72584 21.9379H5.77898C5.76146 21.7257 5.74665 21.6827 5.73789 21.6573C5.73248 21.6417 5.72938 21.6327 5.72938 21.5947C5.72848 21.048 6.16863 20.5959 6.73194 20.5649H7.98957C6.59027 19.3774 5.81089 17.6469 5.864 15.8453C5.86618 15.1167 5.9857 14.3929 6.21826 13.7H1L4.18835 1H15.8117L19 13.7ZM15.259 1.68649H4.74454L1.90691 13.0136H18.0931L15.259 1.68649ZM14.5753 22.9676C14.5778 23.1366 14.4531 23.2822 14.2812 23.3109H5.72584C5.53019 23.3109 5.37158 23.1572 5.37158 22.9676C5.37158 22.7781 5.53019 22.6244 5.72584 22.6244H14.2777C14.451 22.6516 14.5775 22.7976 14.5753 22.9676ZM13.6259 21.5947C13.6259 21.4051 13.4673 21.2514 13.2716 21.2514H6.73194C6.53629 21.2514 6.37768 21.4051 6.37768 21.5947C6.37768 21.7842 6.53629 21.9379 6.73194 21.9379H13.2716C13.4673 21.9379 13.6259 21.7842 13.6259 21.5947ZM13.4275 15.732C13.4275 18.351 11.89 20.407 10.0018 20.407C8.11356 20.407 6.57607 18.3853 6.57607 15.7595C6.57752 15.0559 6.70951 14.3584 6.96575 13.7H13.0378C13.2949 14.3486 13.427 15.0373 13.4275 15.732ZM16.7327 18.6771H17.4413V17.9906H16.7327V18.6771Z" fill="#BBBBBB"/>
<path d="M17.4413 13.7V13.55H17.2913V13.7H17.4413ZM19 13.7V13.85H19.1923L19.1455 13.6635L19 13.7ZM17.4413 17.4757H17.2913V17.6257H17.4413V17.4757ZM18.1498 17.4757H18.2998V17.3257H18.1498V17.4757ZM18.1498 19.5352V19.6852H18.2998V19.5352H18.1498ZM16.0242 19.5352H15.8742V19.6852H16.0242V19.5352ZM16.0242 17.4757V17.3257H15.8742V17.4757H16.0242ZM16.7327 17.4757V17.6257H16.8827V17.4757H16.7327ZM16.7327 13.7H16.8827V13.55H16.7327V13.7ZM13.7782 13.7V13.55H13.5696L13.636 13.7478L13.7782 13.7ZM14.1325 15.8453L13.9824 15.8458L13.9825 15.8497L14.1325 15.8453ZM12.0069 20.5649L11.9098 20.4506L11.5983 20.7149H12.0069V20.5649ZM13.2716 20.5649L13.2798 20.4149H13.2716V20.5649ZM14.2742 21.5947L14.1242 21.5944V21.5947H14.2742ZM14.2657 21.6573L14.4075 21.7062L14.4075 21.7062L14.2657 21.6573ZM14.2246 21.9379L14.0751 21.9256L14.0617 22.0879H14.2246V21.9379ZM15.2803 23.1118L15.4303 23.1143V23.1118H15.2803ZM14.2777 23.9974L14.2888 23.8474H14.2777V23.9974ZM5.72584 23.9974V23.847L5.71477 23.8478L5.72584 23.9974ZM5.02717 23.7644L4.92786 23.8768H4.92786L5.02717 23.7644ZM4.72328 23.1118H4.57326L4.5733 23.1143L4.72328 23.1118ZM5.77898 21.9379V22.0879H5.94188L5.92847 21.9256L5.77898 21.9379ZM5.73789 21.6573L5.8797 21.6084L5.8797 21.6084L5.73789 21.6573ZM5.72938 21.5947H5.87938L5.87938 21.5944L5.72938 21.5947ZM6.73194 20.5649V20.4147L6.72371 20.4152L6.73194 20.5649ZM7.98957 20.5649V20.7149H8.39815L8.08663 20.4506L7.98957 20.5649ZM5.864 15.8453L6.01399 15.8497L6.014 15.8458L5.864 15.8453ZM6.21826 13.7L6.36047 13.7478L6.42683 13.55H6.21826V13.7ZM1 13.7L0.854515 13.6635L0.807688 13.85H1V13.7ZM4.18835 1V0.85H4.07135L4.04286 0.963476L4.18835 1ZM15.8117 1L15.9571 0.963476L15.9286 0.85H15.8117V1ZM4.74454 1.68649V1.53649H4.62748L4.59903 1.65004L4.74454 1.68649ZM15.259 1.68649L15.4045 1.65008L15.3761 1.53649H15.259V1.68649ZM1.90691 13.0136L1.7614 12.9771L1.7147 13.1636H1.90691V13.0136ZM18.0931 13.0136V13.1636H18.2852L18.2386 12.9771L18.0931 13.0136ZM14.2812 23.3109V23.4609H14.2937L14.306 23.4588L14.2812 23.3109ZM14.5753 22.9676L14.4252 22.9656L14.4253 22.9699L14.5753 22.9676ZM14.2777 22.6244L14.301 22.4762L14.2894 22.4744H14.2777V22.6244ZM13.4275 15.732H13.5775V15.7319L13.4275 15.732ZM6.57607 15.7595L6.42607 15.7592V15.7595H6.57607ZM6.96575 13.7V13.55H6.86318L6.82597 13.6456L6.96575 13.7ZM13.0378 13.7L13.1772 13.6448L13.1397 13.55H13.0378V13.7ZM17.4413 18.6771V18.8271H17.5913V18.6771H17.4413ZM16.7327 18.6771H16.5827V18.8271H16.7327V18.6771ZM17.4413 17.9906H17.5913V17.8406H17.4413V17.9906ZM16.7327 17.9906V17.8406H16.5827V17.9906H16.7327ZM17.4413 13.85H19V13.55H17.4413V13.85ZM17.5913 17.4757V13.7H17.2913V17.4757H17.5913ZM18.1498 17.3257H17.4413V17.6257H18.1498V17.3257ZM18.2998 19.5352V17.4757H17.9998V19.5352H18.2998ZM16.0242 19.6852H18.1498V19.3852H16.0242V19.6852ZM15.8742 17.4757V19.5352H16.1742V17.4757H15.8742ZM16.7327 17.3257H16.0242V17.6257H16.7327V17.3257ZM16.5827 13.7V17.4757H16.8827V13.7H16.5827ZM13.7782 13.85H16.7327V13.55H13.7782V13.85ZM14.2825 15.8449C14.2803 15.1001 14.1581 14.3604 13.9204 13.6523L13.636 13.7478C13.8635 14.4255 13.9804 15.1333 13.9825 15.8458L14.2825 15.8449ZM12.1039 20.6793C13.5373 19.4629 14.3369 17.689 14.2824 15.8409L13.9825 15.8497C14.0343 17.6048 13.2751 19.2919 11.9098 20.4506L12.1039 20.6793ZM13.2716 20.4149H12.0069V20.7149H13.2716V20.4149ZM14.4242 21.5949C14.4252 20.9644 13.9186 20.4503 13.2798 20.4152L13.2634 20.7147C13.7512 20.7415 14.1249 21.1316 14.1242 21.5944L14.4242 21.5949ZM14.4075 21.7062C14.4102 21.6982 14.4163 21.6813 14.42 21.6583C14.4233 21.6377 14.4242 21.6167 14.4242 21.5947H14.1242C14.1242 21.6023 14.124 21.6069 14.1238 21.6096C14.1237 21.6121 14.1236 21.612 14.1239 21.6104C14.1242 21.6084 14.1247 21.6063 14.1251 21.6047C14.1253 21.604 14.1254 21.6039 14.1238 21.6084L14.4075 21.7062ZM14.3741 21.9503C14.3912 21.7422 14.4048 21.7139 14.4075 21.7062L14.1238 21.6084C14.109 21.6515 14.0929 21.7092 14.0751 21.9256L14.3741 21.9503ZM14.2777 21.7879H14.2246V22.0879H14.2777V21.7879ZM15.4303 23.1118C15.4303 22.8055 15.3032 22.4797 15.1033 22.2303C14.9036 21.9811 14.6139 21.7879 14.2777 21.7879V22.0879C14.4942 22.0879 14.7057 22.2139 14.8692 22.4179C15.0324 22.6215 15.1303 22.8827 15.1303 23.1118H15.4303ZM15.0757 23.8768C15.2964 23.6818 15.4254 23.4061 15.4302 23.1143L15.1303 23.1093C15.1269 23.3151 15.0359 23.5116 14.8771 23.652L15.0757 23.8768ZM14.2666 24.147C14.5624 24.1689 14.8551 24.0716 15.0757 23.8768L14.8771 23.652C14.718 23.7924 14.5052 23.8638 14.2888 23.8478L14.2666 24.147ZM5.72584 24.1474H14.2777V23.8474H5.72584V24.1474ZM4.92786 23.8768C5.14842 24.0716 5.44117 24.1689 5.73691 24.147L5.71477 23.8478C5.49835 23.8638 5.28551 23.7924 5.12647 23.652L4.92786 23.8768ZM4.5733 23.1143C4.57815 23.4061 4.70712 23.6818 4.92786 23.8768L5.12647 23.652C4.96763 23.5116 4.87668 23.3151 4.87326 23.1093L4.5733 23.1143ZM5.72584 21.7879C5.38995 21.7879 5.1002 21.98 4.90036 22.2289C4.70028 22.478 4.57328 22.8039 4.57328 23.1118H4.87328C4.87328 22.8808 4.97124 22.6197 5.13428 22.4167C5.29755 22.2133 5.50909 22.0879 5.72584 22.0879V21.7879ZM5.77898 21.7879H5.72584V22.0879H5.77898V21.7879ZM5.59608 21.7062C5.59873 21.7139 5.61231 21.7422 5.62949 21.9503L5.92847 21.9256C5.91061 21.7092 5.89456 21.6515 5.8797 21.6084L5.59608 21.7062ZM5.57938 21.5947C5.57938 21.6167 5.58019 21.6377 5.58354 21.6583C5.58725 21.6813 5.5933 21.6982 5.59608 21.7062L5.8797 21.6084C5.87812 21.6039 5.87821 21.604 5.8784 21.6047C5.87886 21.6063 5.87936 21.6084 5.87968 21.6104C5.87994 21.612 5.87985 21.6121 5.8797 21.6096C5.87954 21.6069 5.87938 21.6023 5.87938 21.5947H5.57938ZM6.72371 20.4152C6.08491 20.4503 5.57834 20.9644 5.57938 21.5949L5.87938 21.5944C5.87862 21.1316 6.25234 20.7415 6.74018 20.7147L6.72371 20.4152ZM7.98957 20.4149H6.73194V20.7149H7.98957V20.4149ZM5.71407 15.8409C5.65958 17.689 6.45919 19.4629 7.89251 20.6793L8.08663 20.4506C6.72135 19.2919 5.96219 17.6048 6.01394 15.8497L5.71407 15.8409ZM6.07606 13.6523C5.8384 14.3604 5.71623 15.1001 5.714 15.8449L6.014 15.8458C6.01613 15.1333 6.13301 14.4255 6.36047 13.7478L6.07606 13.6523ZM1 13.85H6.21826V13.55H1V13.85ZM4.04286 0.963476L0.854515 13.6635L1.14549 13.7366L4.33383 1.03652L4.04286 0.963476ZM15.8117 0.85H4.18835V1.15H15.8117V0.85ZM19.1455 13.6635L15.9571 0.963476L15.6662 1.03652L18.8545 13.7366L19.1455 13.6635ZM4.74454 1.83649H15.259V1.53649H4.74454V1.83649ZM2.05241 13.05L4.89004 1.72294L4.59903 1.65004L1.7614 12.9771L2.05241 13.05ZM18.0931 12.8636H1.90691V13.1636H18.0931V12.8636ZM15.1135 1.7229L17.9476 13.05L18.2386 12.9771L15.4045 1.65008L15.1135 1.7229ZM14.306 23.4588C14.5475 23.4185 14.729 23.2119 14.7253 22.9654L14.4253 22.9699C14.4267 23.0612 14.3587 23.1459 14.2565 23.1629L14.306 23.4588ZM5.72584 23.4609H14.2812V23.1609H5.72584V23.4609ZM5.22158 22.9676C5.22158 23.2445 5.45185 23.4609 5.72584 23.4609V23.1609C5.60853 23.1609 5.52158 23.0699 5.52158 22.9676H5.22158ZM5.72584 22.4744C5.45185 22.4744 5.22158 22.6908 5.22158 22.9676H5.52158C5.52158 22.8653 5.60853 22.7744 5.72584 22.7744V22.4744ZM14.2777 22.4744H5.72584V22.7744H14.2777V22.4744ZM14.7253 22.9696C14.7286 22.7215 14.5444 22.5144 14.301 22.4762L14.2544 22.7726C14.3575 22.7888 14.4265 22.8737 14.4253 22.9657L14.7253 22.9696ZM13.2716 21.4014C13.3889 21.4014 13.4759 21.4924 13.4759 21.5947H13.7759C13.7759 21.3178 13.5456 21.1014 13.2716 21.1014V21.4014ZM6.73194 21.4014H13.2716V21.1014H6.73194V21.4014ZM6.52768 21.5947C6.52768 21.4924 6.61463 21.4014 6.73194 21.4014V21.1014C6.45795 21.1014 6.22768 21.3178 6.22768 21.5947H6.52768ZM6.73194 21.7879C6.61463 21.7879 6.52768 21.697 6.52768 21.5947H6.22768C6.22768 21.8715 6.45795 22.0879 6.73194 22.0879V21.7879ZM13.2716 21.7879H6.73194V22.0879H13.2716V21.7879ZM13.4759 21.5947C13.4759 21.697 13.3889 21.7879 13.2716 21.7879V22.0879C13.5456 22.0879 13.7759 21.8715 13.7759 21.5947H13.4759ZM10.0018 20.557C11.0043 20.557 11.9018 20.0108 12.5434 19.1407C13.185 18.2706 13.5775 17.0698 13.5775 15.732H13.2775C13.2775 17.0133 12.9012 18.1499 12.302 18.9626C11.7028 19.7753 10.8875 20.257 10.0018 20.257V20.557ZM6.42607 15.7595C6.42607 17.1007 6.81857 18.2949 7.46051 19.1575C8.10262 20.0203 9.00021 20.557 10.0018 20.557V20.257C9.11512 20.257 8.29986 19.7829 7.70118 18.9784C7.10231 18.1737 6.72607 17.0442 6.72607 15.7595H6.42607ZM6.82597 13.6456C6.56304 14.3211 6.42756 15.037 6.42607 15.7592L6.72607 15.7598C6.72748 15.0748 6.85598 14.3956 7.10554 13.7545L6.82597 13.6456ZM13.0378 13.55H6.96575V13.85H13.0378V13.55ZM13.5775 15.7319C13.577 15.0182 13.4413 14.3108 13.1772 13.6448L12.8983 13.7553C13.1485 14.3864 13.277 15.0564 13.2775 15.7322L13.5775 15.7319ZM17.4413 18.5271H16.7327V18.8271H17.4413V18.5271ZM17.2913 17.9906V18.6771H17.5913V17.9906H17.2913ZM16.7327 18.1406H17.4413V17.8406H16.7327V18.1406ZM16.8827 18.6771V17.9906H16.5827V18.6771H16.8827Z" fill="#BBBBBB"/>
</svg>
