<svg width="12" height="16" viewBox="0 0 12 16" fill="none" xmlns="http://www.w3.org/2000/svg">
<path d="M6 8.66663C7.10457 8.66663 8 7.7712 8 6.66663C8 5.56206 7.10457 4.66663 6 4.66663C4.89543 4.66663 4 5.56206 4 6.66663C4 7.7712 4.89543 8.66663 6 8.66663Z" stroke="black" stroke-width="1.33333" stroke-linecap="round" stroke-linejoin="round"/>
<path d="M6.00002 1.33331C4.58553 1.33331 3.22898 1.89522 2.22878 2.89541C1.22859 3.8956 0.666687 5.25216 0.666687 6.66665C0.666687 7.92798 0.934687 8.75331 1.66669 9.66665L6.00002 14.6666L10.3334 9.66665C11.0654 8.75331 11.3334 7.92798 11.3334 6.66665C11.3334 5.25216 10.7715 3.8956 9.77126 2.89541C8.77106 1.89522 7.41451 1.33331 6.00002 1.33331V1.33331Z" stroke="black" stroke-width="1.33333" stroke-linecap="round" stroke-linejoin="round"/>
</svg>
