<svg width="15" height="18" viewBox="0 0 15 18" fill="none" xmlns="http://www.w3.org/2000/svg">
<path d="M3.41554 7.828H9.05754C9.32275 7.828 9.57711 7.93336 9.76464 8.12089C9.95218 8.30843 10.0575 8.56278 10.0575 8.828C10.0575 9.09322 9.95218 9.34757 9.76464 9.53511C9.57711 9.72264 9.32275 9.828 9.05754 9.828H3.41554L4.53754 10.95C4.63038 11.0429 4.70402 11.1532 4.75424 11.2746C4.80446 11.3959 4.83029 11.526 4.83024 11.6574C4.83019 11.7887 4.80428 11.9188 4.75397 12.0401C4.70366 12.1614 4.62995 12.2717 4.53704 12.3645C4.44413 12.4573 4.33384 12.531 4.21247 12.5812C4.0911 12.6314 3.96103 12.6572 3.82968 12.6572C3.69834 12.6572 3.56828 12.6312 3.44695 12.5809C3.32562 12.5306 3.21538 12.4569 3.12254 12.364L0.294538 9.536C0.201203 9.44333 0.127126 9.33311 0.0765753 9.21168C0.0260249 9.09025 0 8.96003 0 8.8285C0 8.69697 0.0260249 8.56674 0.0765753 8.44532C0.127126 8.32389 0.201203 8.21367 0.294538 8.121L3.12154 5.293C3.21438 5.20009 3.32462 5.12638 3.44595 5.07607C3.56728 5.02576 3.69734 4.99984 3.82868 4.9998C3.96003 4.99975 4.0901 5.02558 4.21147 5.0758C4.33284 5.12602 4.44313 5.19966 4.53604 5.2925C4.62895 5.38534 4.70266 5.49558 4.75297 5.61691C4.80328 5.73825 4.82919 5.8683 4.82924 5.99965C4.82929 6.13099 4.80346 6.26107 4.75324 6.38243C4.70302 6.5038 4.62938 6.61409 4.53654 6.707L3.41554 7.828ZM13.0015 0C13.2668 0 13.5211 0.105357 13.7086 0.292893C13.8962 0.48043 14.0015 0.734784 14.0015 1V17C14.0015 17.2652 13.8962 17.5196 13.7086 17.7071C13.5211 17.8946 13.2668 18 13.0015 18C12.7363 18 12.482 17.8946 12.2944 17.7071C12.1069 17.5196 12.0015 17.2652 12.0015 17V1C12.0015 0.734784 12.1069 0.48043 12.2944 0.292893C12.482 0.105357 12.7363 0 13.0015 0Z" fill="#CCCCCC"/>
</svg>
