<svg width="73" height="87" viewBox="0 0 73 87" fill="none" xmlns="http://www.w3.org/2000/svg">
<path d="M69.8334 43.3284C69.8334 37.9743 67.0205 33.9574 62.3097 32.5813C59.4389 31.743 56.1501 32.0046 53.0475 33.315C49.7464 34.7134 46.9124 37.1627 44.8428 40.4036C39.9314 48.0789 41.4627 53.355 42.8123 55.8177C44.211 58.3695 46.6917 60.153 48.8437 60.153C50.7851 60.153 53.8097 58.9106 56.1913 56.1384C58.4358 53.5243 60.8498 48.7069 59.6027 40.6051C59.5347 40.1641 59.2942 39.7682 58.9339 39.5044C58.5737 39.2406 58.1234 39.1305 57.6819 39.1984C57.2405 39.2664 56.8441 39.5067 56.5801 39.8665C56.316 40.2264 56.2058 40.6763 56.2738 41.1173C57.3259 47.9554 55.4201 51.8687 53.6348 53.9473C51.8494 56.0259 49.7531 56.7874 48.8426 56.7874C48.2642 56.7874 46.7664 56.0293 45.7645 54.2012C44.7738 52.392 43.7039 48.4296 47.6791 42.2161C51.3568 36.4624 57.3526 34.6388 61.3691 35.8111C64.6099 36.7575 66.4688 39.4974 66.4688 43.3284C66.4688 48.5532 63.0218 53.5465 59.6885 58.3762C58.2865 60.4069 56.9135 62.3964 55.8526 64.3514C55.4491 64.2661 55.0405 64.1963 54.6267 64.1421C51.1306 63.6912 45.6297 64.1878 39.2828 69.1009C38.2715 69.8792 37.3197 70.7318 36.4354 71.6516C32.4412 68.3438 22.9505 66.2341 16.1222 66.3654C15.7374 66.3736 15.3629 66.3873 14.9989 66.4066C14.0226 62.5189 11.2097 58.4441 7.49635 53.3316C3.38512 47.6737 2.49133 40.2121 4.23657 36.7931C4.88072 35.5306 5.81129 34.916 7.08177 34.916C8.16613 34.916 8.5874 35.3068 8.83146 35.6464C10.1298 37.4466 9.26275 42.156 8.41131 44.7C8.29716 45.0476 8.2995 45.423 8.41796 45.7692C8.53643 46.1154 8.76458 46.4136 9.06786 46.6187C9.37115 46.8238 9.73306 46.9245 10.0988 46.9058C10.4646 46.887 10.8142 46.7497 11.0949 46.5147C11.125 46.4891 14.1764 43.9318 18.9373 43.1313C25.2764 42.0614 31.5808 44.464 37.6769 50.2666C37.837 50.4191 38.0256 50.5385 38.2319 50.6181C38.4382 50.6977 38.6582 50.7359 38.8793 50.7306C39.1004 50.7253 39.3183 50.6765 39.5205 50.5871C39.7227 50.4976 39.9054 50.3693 40.0579 50.2093C40.2105 50.0494 40.3301 49.861 40.4097 49.6549C40.4894 49.4488 40.5277 49.229 40.5224 49.0081C40.517 48.7872 40.4682 48.5696 40.3787 48.3675C40.2891 48.1655 40.1606 47.9831 40.0005 47.8307C31.3234 39.572 23.3539 38.924 18.1962 39.8425C16.2513 40.1903 14.3633 40.8028 12.5849 41.6628C12.9984 39.0487 13.0742 35.79 11.5585 33.6835C10.8587 32.7094 9.51463 31.5515 7.07286 31.5515C4.5241 31.5515 2.44787 32.8708 1.22642 35.2645C-1.32456 40.2645 0.22341 49.0698 4.76147 55.3045C8.42357 60.3434 10.7628 63.8382 11.6198 66.8297C9.22598 67.3429 7.48631 68.277 6.42647 69.6064C4.64334 71.8475 4.13404 74.3447 5.05123 76.2864C5.3681 76.9738 5.87208 77.5584 6.50564 77.9734C7.13919 78.3884 7.87678 78.617 8.6342 78.6333C10.7071 78.6667 12.6462 77.2438 13.9568 74.7154C14.8428 73.0076 15.2864 71.3754 15.3544 69.7511C15.6226 69.7377 15.8967 69.7285 16.1768 69.7233C23.501 69.5863 31.6533 72.01 34.3112 74.2657C31.806 77.9975 31.4839 81.6047 32.5894 84.0864C33.4052 85.9167 34.9688 87 36.7029 87C36.957 86.9998 37.2106 86.977 37.4607 86.932C39.1324 86.6314 40.3661 85.5816 40.9378 83.9784C41.8528 81.4088 40.9055 77.6023 38.6186 74.2211C39.4556 73.3279 40.3647 72.505 41.3368 71.7607C46.7697 67.5567 51.3245 67.1114 54.1887 67.4788L54.4383 67.5133C53.7172 69.6843 53.5913 71.8174 54.4695 73.9227C56.1323 77.9107 58.4281 78.5921 59.6484 78.6433C61.4003 78.7145 63.0798 77.6335 64.0237 75.8154C64.591 74.7219 64.8355 73.4898 64.7287 72.2628C64.622 71.0358 64.1684 69.8643 63.4208 68.8849C62.3197 67.4554 60.8264 66.2831 59.0856 65.4469C60.0117 63.8282 61.203 62.1069 62.4568 60.2866C65.915 55.2778 69.8334 49.6009 69.8334 43.3284ZM10.9634 73.1735C10.1499 74.7411 9.23935 75.2888 8.69439 75.2754C8.56406 75.274 8.43719 75.2334 8.33026 75.1589C8.22334 75.0844 8.1413 74.9796 8.09481 74.8579C7.83068 74.3013 7.92541 73.1345 9.06215 71.7016C9.57035 71.0626 10.56 70.5583 11.9263 70.2187C11.7851 71.2533 11.4589 72.2541 10.9634 73.1735ZM37.7616 82.8494C37.5967 83.3115 37.3359 83.5353 36.86 83.621C36.1913 83.7412 35.8024 83.0298 35.6631 82.7181C35.2084 81.6972 35.1059 79.6598 36.4722 77.1514C37.7727 79.4482 38.1884 81.6593 37.7649 82.8494H37.7616ZM60.7483 70.9368C61.1103 71.4065 61.3293 71.9703 61.3793 72.5609C61.4293 73.1516 61.3081 73.7441 61.0303 74.2679C60.706 74.8925 60.1967 75.2977 59.7855 75.2821C59.2672 75.261 58.3768 74.5529 57.5744 72.6291C57.0528 71.3777 57.1498 69.9938 57.6546 68.493C58.8626 69.0563 59.9229 69.8925 60.7517 70.9357L60.7483 70.9368Z" fill="#FFAA1A"/>
<path d="M8.00008 30.1677C9.17412 29.6896 10.4832 29.6599 11.6778 30.0842C13.3773 30.7132 14.7983 32.3231 15.896 34.8715C16.0261 35.1732 16.2419 35.4302 16.5166 35.6109C16.7913 35.7915 17.1129 35.8878 17.4417 35.888C17.4863 35.888 17.5309 35.888 17.5755 35.888C17.9262 35.8603 18.2594 35.7235 18.5283 35.4969C18.7971 35.2702 18.9881 34.9651 19.0744 34.6244C19.0989 34.5308 21.5262 25.161 27.1698 16.7142C34.5252 5.70886 43.6348 1.4782 54.2321 4.1335C65.8648 7.05488 68.973 12.7062 69.5314 16.9368C70.1722 21.7965 67.6179 26.104 65.6052 27.2251C64.8796 27.6293 64.6233 27.4211 64.5397 27.3521C60.5756 24.1178 64.3057 17.3321 64.3425 17.2619C64.5618 16.8732 64.6175 16.4134 64.4975 15.9836C64.3774 15.5538 64.0913 15.1892 63.7022 14.9701C63.3131 14.751 62.8528 14.6953 62.4226 14.8153C61.9923 14.9352 61.6274 15.221 61.4081 15.6097C61.1953 15.9883 56.2504 24.9328 62.4111 29.9584C63.7485 31.0528 65.516 31.1285 67.2479 30.1632C70.5756 28.3106 73.6727 22.558 72.8725 16.4959C72.2986 12.1896 69.2271 4.43076 55.049 0.868092C43.0954 -2.13791 32.4847 2.6973 24.3659 14.8382C20.6113 20.4527 18.2364 26.3445 16.9614 30.043C15.7912 28.5511 14.4149 27.5068 12.8446 26.9257C9.53357 25.701 6.64156 27.0815 6.52009 27.1416C6.32141 27.2387 6.14382 27.3739 5.99746 27.5396C5.8511 27.7052 5.73883 27.898 5.66706 28.107C5.59529 28.316 5.56543 28.5371 5.57919 28.7576C5.59294 28.9781 5.65003 29.1938 5.74721 29.3922C5.84439 29.5907 5.97975 29.7681 6.14556 29.9143C6.31137 30.0606 6.50438 30.1727 6.71358 30.2444C6.92278 30.3161 7.14407 30.3459 7.3648 30.3322C7.58554 30.3185 7.80141 30.2614 8.00008 30.1643V30.1677Z" fill="#FFAA1A"/>
<path d="M53.3751 21.9424C53.5314 21.7862 53.6555 21.6007 53.7401 21.3966C53.8247 21.1925 53.8683 20.9737 53.8683 20.7528C53.8683 20.5319 53.8247 20.3131 53.7401 20.109C53.6555 19.9049 53.5314 19.7194 53.3751 19.5632C53.2187 19.407 53.033 19.283 52.8287 19.1985C52.6244 19.114 52.4054 19.0704 52.1843 19.0704C51.9631 19.0704 51.7441 19.114 51.5398 19.1985C51.3355 19.283 51.1498 19.407 50.9935 19.5632C50.7804 19.7762 50.4913 19.896 50.1898 19.8961C49.8883 19.8962 49.5991 19.7766 49.3859 19.5637C49.1726 19.3508 49.0528 19.062 49.0526 18.7609C49.0525 18.4597 49.1722 18.1708 49.3853 17.9578C49.5417 17.8015 49.6657 17.6161 49.7504 17.412C49.835 17.2079 49.8786 16.9891 49.8786 16.7682C49.8786 16.5472 49.835 16.3285 49.7504 16.1244C49.6657 15.9202 49.5417 15.7348 49.3853 15.5786C49.2289 15.4223 49.0433 15.2984 48.839 15.2139C48.6347 15.1293 48.4157 15.0858 48.1945 15.0858C47.9734 15.0858 47.7544 15.1293 47.5501 15.2139C47.3457 15.2984 47.1601 15.4223 47.0037 15.5786C46.159 16.4226 45.6845 17.5673 45.6846 18.7609C45.6847 19.9544 46.1594 21.099 47.0043 21.9429C47.8492 22.7868 48.995 23.2609 50.1898 23.2608C51.3845 23.2607 52.5303 22.7864 53.3751 21.9424Z" fill="#FFAA1A"/>
<path d="M40.6168 19.7001C40.7733 19.5439 40.8974 19.3584 40.9821 19.1543C41.0668 18.9501 41.1104 18.7313 41.1104 18.5104C41.1105 18.2894 41.067 18.0705 40.9824 17.8664C40.8978 17.6622 40.7737 17.4767 40.6174 17.3204C40.461 17.1641 40.2753 17.0401 40.071 16.9555C39.8666 16.8709 39.6476 16.8273 39.4264 16.8272C39.2052 16.8272 38.9862 16.8706 38.7818 16.9552C38.5774 17.0397 38.3917 17.1636 38.2352 17.3198C38.0203 17.5236 37.7342 17.6354 37.4379 17.6315C37.1416 17.6276 36.8585 17.5083 36.649 17.299C36.4395 17.0897 36.3201 16.8069 36.3162 16.5109C36.3123 16.2149 36.4242 15.9291 36.6282 15.7144C36.7918 15.5598 36.9228 15.3741 37.0133 15.1681C37.1039 14.9621 37.1521 14.7401 37.1552 14.5151C37.1584 14.2902 37.1163 14.0669 37.0315 13.8585C36.9467 13.65 36.8209 13.4607 36.6616 13.3017C36.5023 13.1427 36.3127 13.0173 36.104 12.9328C35.8953 12.8483 35.6717 12.8064 35.4466 12.8098C35.2214 12.8131 34.9992 12.8615 34.7931 12.9521C34.5869 13.0428 34.4011 13.1738 34.2466 13.3374C33.4017 14.1813 32.927 15.3259 32.9269 16.5195C32.9268 17.713 33.4013 18.8577 34.246 19.7018C35.0908 20.5458 36.2366 21.0201 37.4313 21.0202C38.6261 21.0203 39.7719 20.5462 40.6168 19.7023V19.7001Z" fill="#FFAA1A"/>
<path d="M44.8953 26.2988C44.5791 25.9835 44.1506 25.8064 43.7039 25.8064C43.2572 25.8064 42.8287 25.9835 42.5126 26.2988C41.6888 27.1472 41.2322 28.2852 41.2412 29.4671C41.2502 30.6489 41.7242 31.7798 42.5608 32.6156C43.3974 33.4513 44.5294 33.9248 45.7125 33.9338C46.8955 33.9428 48.0347 33.4866 48.8839 32.6638C49.0403 32.5075 49.1643 32.3221 49.249 32.118C49.3336 31.9138 49.3771 31.6951 49.3771 31.4742C49.3771 31.2532 49.3336 31.0345 49.249 30.8303C49.1643 30.6262 49.0403 30.4408 48.8839 30.2846C48.7275 30.1283 48.5419 30.0044 48.3376 29.9199C48.1332 29.8353 47.9143 29.7918 47.6931 29.7918C47.472 29.7918 47.253 29.8353 47.0486 29.9199C46.8443 30.0044 46.6587 30.1283 46.5023 30.2846C46.2891 30.4974 45.9999 30.617 45.6984 30.6169C45.3969 30.6168 45.1078 30.497 44.8947 30.284C44.6816 30.071 44.5619 29.7821 44.562 29.4809C44.5621 29.1797 44.682 28.8909 44.8953 28.678C45.0517 28.5218 45.1757 28.3363 45.2604 28.1322C45.345 27.9281 45.3885 27.7094 45.3885 27.4884C45.3885 27.2675 45.345 27.0487 45.2604 26.8446C45.1757 26.6405 45.0517 26.455 44.8953 26.2988Z" fill="#FFAA1A"/>
<path d="M32.138 24.0554C31.9817 23.8992 31.796 23.7752 31.5917 23.6907C31.3874 23.6061 31.1684 23.5626 30.9472 23.5626C30.7261 23.5626 30.5071 23.6061 30.3028 23.6907C30.0985 23.7752 29.9128 23.8992 29.7564 24.0554C28.9327 24.9038 28.4761 26.0418 28.4851 27.2236C28.4941 28.4055 28.9681 29.5364 29.8047 30.3721C30.6413 31.2079 31.7733 31.6814 32.9563 31.6904C34.1394 31.6994 35.2785 31.2432 36.1278 30.4203C36.4436 30.1048 36.621 29.6769 36.621 29.2307C36.621 28.7846 36.4436 28.3566 36.1278 28.0411C35.812 27.7256 35.3836 27.5484 34.937 27.5484C34.4904 27.5484 34.062 27.7256 33.7462 28.0411C33.6406 28.1466 33.5152 28.2303 33.3773 28.2874C33.2393 28.3445 33.0915 28.3739 32.9421 28.3739C32.7928 28.3739 32.6449 28.3445 32.5069 28.2874C32.369 28.2303 32.2436 28.1466 32.138 28.0411C32.0324 27.9357 31.9487 27.8104 31.8915 27.6726C31.8344 27.5348 31.805 27.3871 31.805 27.2379C31.805 27.0887 31.8344 26.941 31.8915 26.8031C31.9487 26.6653 32.0324 26.5401 32.138 26.4346C32.2944 26.2784 32.4185 26.0929 32.5031 25.8888C32.5878 25.6847 32.6313 25.4659 32.6313 25.245C32.6313 25.0241 32.5878 24.8053 32.5031 24.6012C32.4185 24.3971 32.2944 24.2116 32.138 24.0554Z" fill="#FFAA1A"/>
</svg>
