<svg width="113" height="159" viewBox="0 0 113 159" fill="none" xmlns="http://www.w3.org/2000/svg">
<path d="M103.445 62.2535C103.445 54.561 99.3993 48.7895 92.6235 46.8124C88.4942 45.6079 83.7638 45.9838 79.3011 47.8666C74.5531 49.8757 70.4767 53.3948 67.5 58.0513C60.4356 69.0791 62.6381 76.6597 64.5793 80.198C66.5911 83.8643 70.1593 86.4269 73.2547 86.4269C76.0471 86.4269 80.3976 84.6417 83.8232 80.6587C87.0516 76.9028 90.5236 69.9813 88.7299 58.3408C88.6321 57.7072 88.2861 57.1383 87.768 56.7593C87.2499 56.3803 86.6021 56.2222 85.9671 56.3197C85.3322 56.4173 84.7621 56.7626 84.3823 57.2796C84.0024 57.7966 83.844 58.4431 83.9418 59.0767C85.455 68.9015 82.7139 74.5242 80.1459 77.5107C77.5779 80.4971 74.5627 81.5913 73.2531 81.5913C72.4211 81.5913 70.2667 80.5019 68.8257 77.8754C67.4006 75.276 65.8617 69.583 71.5796 60.6555C76.8694 52.3887 85.4935 49.7685 91.2706 51.4529C95.9321 52.8126 98.6059 56.7492 98.6059 62.2535C98.6059 69.7605 93.6478 76.9348 88.8533 83.8739C86.8368 86.7916 84.8619 89.6501 83.3359 92.4591C82.7556 92.3364 82.1678 92.2362 81.5726 92.1583C76.544 91.5105 68.6317 92.2239 59.5027 99.283C58.048 100.401 56.679 101.626 55.4071 102.948C49.662 98.1953 36.011 95.164 26.1895 95.3528C25.6359 95.3645 25.0973 95.3842 24.5737 95.412C23.1695 89.8261 19.1236 83.9715 13.7824 76.6261C7.86901 68.4968 6.58342 57.7762 9.09369 52.8638C10.0202 51.0498 11.3587 50.1668 13.1861 50.1668C14.7458 50.1668 15.3517 50.7283 15.7028 51.2162C17.5703 53.8027 16.3231 60.5691 15.0985 64.2242C14.9343 64.7237 14.9376 65.263 15.108 65.7604C15.2784 66.2578 15.6066 66.6863 16.0428 66.981C16.479 67.2756 16.9996 67.4205 17.5257 67.3935C18.0518 67.3666 18.5547 67.1693 18.9584 66.8316C19.0017 66.7948 23.3907 63.1205 30.2386 61.9704C39.3564 60.4331 48.4245 63.8851 57.1928 72.2223C57.4231 72.4413 57.6944 72.6129 57.9911 72.7273C58.2878 72.8416 58.6043 72.8966 58.9223 72.8889C59.2403 72.8813 59.5537 72.8112 59.8446 72.6827C60.1355 72.5542 60.3981 72.3698 60.6176 72.1399C60.837 71.9101 61.009 71.6394 61.1236 71.3433C61.2382 71.0472 61.2933 70.7314 61.2856 70.4141C61.2779 70.0967 61.2077 69.784 61.0789 69.4937C60.9501 69.2035 60.7653 68.9414 60.535 68.7224C48.0542 56.8564 36.5913 55.9254 29.1727 57.2451C26.3752 57.7448 23.6596 58.6248 21.1016 59.8605C21.6963 56.1046 21.8053 51.4225 19.6253 48.396C18.6186 46.9964 16.6854 45.3328 13.1733 45.3328C9.50726 45.3328 6.5209 47.2283 4.76403 50.6675C1.0948 57.8514 3.32134 70.5027 9.84869 79.4606C15.1161 86.7005 18.4808 91.7216 19.7135 96.0198C16.2702 96.7572 13.768 98.0993 12.2435 100.009C9.67877 103.229 8.94622 106.817 10.2655 109.607C10.7212 110.595 11.4461 111.435 12.3574 112.031C13.2687 112.627 14.3296 112.956 15.4191 112.979C18.4006 113.027 21.1898 110.983 23.0749 107.35C24.3493 104.896 24.9873 102.551 25.0851 100.217C25.4708 100.198 25.8652 100.185 26.2681 100.177C36.8029 99.9805 48.5287 103.463 52.3518 106.704C48.7483 112.066 48.285 117.248 49.8752 120.814C51.0486 123.444 53.2976 125 55.7918 125C56.1573 125 56.5221 124.967 56.8818 124.902C59.2863 124.471 61.0608 122.962 61.8831 120.659C63.1992 116.967 61.8366 111.498 58.5473 106.64C59.7512 105.356 61.0589 104.174 62.457 103.105C70.2715 97.0644 76.8229 96.4245 80.9426 96.9524L81.3017 97.002C80.2645 100.121 80.0834 103.186 81.3465 106.211C83.7382 111.941 87.0403 112.92 88.7956 112.993C91.3155 113.096 93.7312 111.542 95.0889 108.93C95.9048 107.359 96.2565 105.589 96.103 103.826C95.9494 102.063 95.297 100.38 94.2217 98.9727C92.638 96.9188 90.49 95.2344 87.9861 94.0331C89.3182 91.7072 91.0318 89.2342 92.8351 86.6189C97.8092 79.4222 103.445 71.2658 103.445 62.2535ZM18.7693 105.134C17.5991 107.387 16.2895 108.174 15.5056 108.155C15.3182 108.152 15.1357 108.094 14.9819 107.987C14.8281 107.88 14.7101 107.729 14.6432 107.555C14.2633 106.755 14.3996 105.078 16.0346 103.02C16.7656 102.102 18.189 101.377 20.1543 100.889C19.9511 102.376 19.482 103.813 18.7693 105.134ZM57.3146 119.037C57.0774 119.701 56.7023 120.022 56.0178 120.145C55.056 120.318 54.4966 119.296 54.2962 118.848C53.6422 117.381 53.4947 114.454 55.46 110.85C57.3307 114.15 57.9286 117.327 57.3194 119.037H57.3146ZM90.3777 101.921C90.8983 102.596 91.2133 103.406 91.2853 104.254C91.3572 105.103 91.1829 105.954 90.7833 106.707C90.3168 107.604 89.5843 108.187 88.9928 108.164C88.2474 108.134 86.9666 107.116 85.8125 104.352C85.0623 102.554 85.2017 100.566 85.9279 98.4096C87.6654 99.2189 89.1905 100.42 90.3826 101.919L90.3777 101.921Z" fill="#EEA427"/>
<path d="M14.507 43.3444C16.1957 42.6575 18.0786 42.6148 19.7968 43.2244C22.2414 44.1282 24.2852 46.4412 25.8641 50.1027C26.0513 50.5362 26.3616 50.9055 26.7567 51.1651C27.1518 51.4246 27.6145 51.563 28.0875 51.5632C28.1516 51.5632 28.2157 51.5632 28.2798 51.5632C28.7843 51.5234 29.2636 51.3269 29.6503 51.0013C30.037 50.6756 30.3118 50.2372 30.4358 49.7476C30.4711 49.6133 33.9624 36.1509 42.0799 24.0146C52.6596 8.20239 65.7624 2.12385 81.0051 5.93893C97.7371 10.1363 102.208 18.256 103.011 24.3345C103.933 31.3169 100.259 37.5058 97.3636 39.1166C96.3201 39.6972 95.9514 39.3981 95.8311 39.2989C90.1293 34.6521 95.4945 24.9024 95.5474 24.8016C95.8629 24.2431 95.9431 23.5824 95.7704 22.9649C95.5977 22.3474 95.1862 21.8236 94.6265 21.5088C94.0668 21.194 93.4047 21.114 92.7859 21.2863C92.1671 21.4587 91.6422 21.8693 91.3268 22.4278C91.0206 22.9717 83.9082 35.823 92.7694 43.0436C94.693 44.6161 97.2354 44.7248 99.7264 43.338C104.513 40.6762 108.968 32.411 107.817 23.7011C106.991 17.5138 102.573 6.36603 82.1801 1.24726C64.9865 -3.07171 49.7245 3.87543 38.0468 21.3193C32.6464 29.3861 29.2304 37.8513 27.3966 43.1652C25.7135 41.0217 23.7338 39.5213 21.4752 38.6863C16.7127 36.9267 12.553 38.9102 12.3782 38.9966C12.0925 39.1361 11.837 39.3304 11.6265 39.5684C11.416 39.8064 11.2545 40.0834 11.1513 40.3837C11.0481 40.6839 11.0051 41.0016 11.0249 41.3184C11.0447 41.6352 11.1268 41.9451 11.2666 42.2302C11.4063 42.5154 11.601 42.7703 11.8395 42.9804C12.078 43.1904 12.3556 43.3516 12.6565 43.4546C12.9575 43.5576 13.2757 43.6005 13.5932 43.5807C13.9107 43.561 14.2212 43.4791 14.507 43.3396V43.3444Z" fill="#EEA427"/>
<path d="M79.7724 31.5264C79.9974 31.302 80.1758 31.0355 80.2975 30.7422C80.4192 30.449 80.4819 30.1347 80.4819 29.8172C80.4819 29.4998 80.4192 29.1855 80.2975 28.8922C80.1758 28.599 79.9974 28.3325 79.7724 28.108C79.5475 27.8836 79.2805 27.7055 78.9866 27.5841C78.6927 27.4626 78.3777 27.4001 78.0596 27.4001C77.7415 27.4001 77.4266 27.4626 77.1327 27.5841C76.8388 27.7055 76.5718 27.8836 76.3468 28.108C76.0403 28.4141 75.6245 28.5862 75.1909 28.5863C74.7572 28.5865 74.3413 28.4147 74.0345 28.1088C73.7278 27.803 73.5554 27.388 73.5552 26.9553C73.5551 26.5226 73.7272 26.1075 74.0337 25.8014C74.2587 25.5769 74.4371 25.3105 74.5588 25.0172C74.6806 24.724 74.7432 24.4096 74.7432 24.0922C74.7432 23.7748 74.6806 23.4605 74.5588 23.1672C74.4371 22.8739 74.2587 22.6075 74.0337 22.383C73.8088 22.1586 73.5418 21.9805 73.2479 21.859C72.954 21.7376 72.6391 21.675 72.321 21.675C72.0029 21.675 71.6879 21.7376 71.394 21.859C71.1001 21.9805 70.8331 22.1586 70.6082 22.383C69.3931 23.5957 68.7106 25.2404 68.7108 26.9553C68.7109 28.6702 69.3937 30.3147 70.609 31.5272C71.8242 32.7397 73.4724 33.4208 75.1909 33.4207C76.9093 33.4205 78.5574 32.7391 79.7724 31.5264Z" fill="#EEA427"/>
<path d="M61.4215 28.3047C61.6465 28.0803 61.825 27.8138 61.9468 27.5205C62.0687 27.2272 62.1314 26.9128 62.1315 26.5953C62.1316 26.2778 62.069 25.9634 61.9473 25.6701C61.8256 25.3767 61.6472 25.1101 61.4223 24.8856C61.1973 24.661 60.9303 24.4829 60.6364 24.3613C60.3424 24.2397 60.0274 24.1771 59.7092 24.177C59.3911 24.177 59.076 24.2394 58.782 24.3609C58.488 24.4823 58.2209 24.6603 57.9959 24.8848C57.6867 25.1775 57.2752 25.3382 56.849 25.3326C56.4229 25.327 56.0157 25.1556 55.7144 24.8549C55.413 24.5541 55.2412 24.1478 55.2356 23.7226C55.23 23.2973 55.391 22.8867 55.6844 22.5781C55.9198 22.3561 56.1082 22.0892 56.2384 21.7932C56.3686 21.4973 56.438 21.1782 56.4425 20.855C56.447 20.5318 56.3865 20.211 56.2645 19.9116C56.1426 19.6121 55.9617 19.3401 55.7325 19.1117C55.5034 18.8832 55.2306 18.703 54.9304 18.5815C54.6302 18.4601 54.3087 18.4 53.9848 18.4048C53.6609 18.4096 53.3413 18.4791 53.0448 18.6094C52.7484 18.7396 52.4811 18.9278 52.2588 19.1629C51.0435 20.3754 50.3607 22.02 50.3606 23.7349C50.3604 25.4497 51.043 27.0944 52.258 28.3072C53.473 29.5199 55.1211 30.2012 56.8396 30.2014C58.558 30.2015 60.2062 29.5204 61.4215 28.308V28.3047Z" fill="#EEA427"/>
<path d="M67.5753 37.7856C67.1206 37.3326 66.5043 37.0781 65.8618 37.0781C65.2192 37.0781 64.6029 37.3326 64.1482 37.7856C62.9634 39.0046 62.3065 40.6396 62.3195 42.3377C62.3325 44.0358 63.0143 45.6606 64.2175 46.8614C65.4208 48.0622 67.0491 48.7425 68.7508 48.7554C70.4524 48.7684 72.0909 48.113 73.3124 46.9307C73.5374 46.7062 73.7158 46.4397 73.8375 46.1465C73.9592 45.8532 74.0219 45.5389 74.0219 45.2215C74.0219 44.904 73.9592 44.5897 73.8375 44.2964C73.7158 44.0032 73.5374 43.7367 73.3124 43.5123C73.0875 43.2878 72.8205 43.1098 72.5266 42.9883C72.2327 42.8668 71.9177 42.8043 71.5996 42.8043C71.2815 42.8043 70.9666 42.8668 70.6727 42.9883C70.3788 43.1098 70.1118 43.2878 69.8869 43.5123C69.5801 43.8181 69.1642 43.9899 68.7305 43.9898C68.2969 43.9896 67.8811 43.8176 67.5745 43.5115C67.268 43.2054 67.0959 42.7903 67.096 42.3576C67.0962 41.9248 67.2686 41.5099 67.5753 41.204C67.8003 40.9796 67.9787 40.7131 68.1005 40.4198C68.2222 40.1266 68.2849 39.8123 68.2849 39.4948C68.2849 39.1774 68.2222 38.8631 68.1005 38.5698C67.9787 38.2765 67.8003 38.0101 67.5753 37.7856Z" fill="#EEA427"/>
<path d="M49.2259 34.5625C49.001 34.338 48.734 34.16 48.4401 34.0385C48.1462 33.917 47.8313 33.8545 47.5132 33.8545C47.1951 33.8545 46.8801 33.917 46.5862 34.0385C46.2923 34.16 46.0253 34.338 45.8004 34.5625C44.6156 35.7815 43.9588 37.4165 43.9717 39.1146C43.9847 40.8127 44.6665 42.4375 45.8698 43.6383C47.073 44.8391 48.7013 45.5194 50.403 45.5323C52.1046 45.5453 53.7431 44.8898 54.9646 43.7075C55.4189 43.2542 55.6741 42.6394 55.6741 41.9983C55.6741 41.3573 55.4189 40.7424 54.9646 40.2891C54.5104 39.8358 53.8943 39.5812 53.2518 39.5812C52.6094 39.5812 51.9933 39.8358 51.5391 40.2891C51.3872 40.4407 51.2069 40.5609 51.0084 40.643C50.81 40.725 50.5973 40.7672 50.3825 40.7672C50.1677 40.7672 49.955 40.725 49.7566 40.643C49.5581 40.5609 49.3778 40.4407 49.2259 40.2891C49.0741 40.1376 48.9536 39.9577 48.8714 39.7596C48.7892 39.5616 48.7469 39.3494 48.7469 39.135C48.7469 38.9207 48.7892 38.7084 48.8714 38.5104C48.9536 38.3124 49.0741 38.1325 49.2259 37.9809C49.4509 37.7565 49.6293 37.49 49.7511 37.1967C49.8728 36.9035 49.9355 36.5891 49.9355 36.2717C49.9355 35.9543 49.8728 35.64 49.7511 35.3467C49.6293 35.0534 49.4509 34.787 49.2259 34.5625Z" fill="#EEA427"/>
<path d="M10.976 158H15.08V141.152H10.976V147.752H4.592V141.152H0.488V158H4.592V151.064H10.976V158ZM37.6267 149.528C37.6267 144.464 33.8107 140.912 29.0107 140.912C24.2347 140.912 20.3467 144.464 20.3467 149.528C20.3467 154.592 24.2347 158.168 29.0107 158.168C33.7867 158.168 37.6267 154.592 37.6267 149.528ZM24.5467 149.528C24.5467 146.528 26.2747 144.632 29.0107 144.632C31.6987 144.632 33.4507 146.528 33.4507 149.528C33.4507 152.48 31.6987 154.424 29.0107 154.424C26.2747 154.424 24.5467 152.48 24.5467 149.528ZM42.9099 158H47.0139V147.872L50.8059 158H54.1179L57.8859 147.896V158H61.9899V141.152H57.1659L52.4859 152.816L47.7579 141.152H42.9099V158ZM78.2611 141.152H67.9411V158H78.2611V154.712H72.0451V151.016H77.5411V147.848H72.0451V144.44H78.2611V141.152ZM83.9255 141.152V158H93.4055V154.832H88.0295V141.152H83.9255ZM102.875 152.432V158H106.979V152.432L112.811 141.152H108.203L104.963 148.208L101.699 141.152H97.043L102.875 152.432Z" fill="#EEA427"/>
</svg>
