<svg width="47" height="13" viewBox="0 0 47 13" fill="none" xmlns="http://www.w3.org/2000/svg">
<path fill-rule="evenodd" clip-rule="evenodd" d="M27.9049 0.517368H31.5384L31.5389 0.516899C32.7546 0.516899 33.6704 0.838277 34.1872 1.44543C34.6571 1.99776 34.8131 2.78668 34.6505 3.79017C34.2898 6.08619 32.9087 7.2438 30.5148 7.2438H29.3651C29.1168 7.2438 28.9051 7.4251 28.8666 7.67012L28.4497 10.3123C28.4225 10.4838 28.2745 10.6103 28.1007 10.6103L26.2361 10.6103C26.1477 10.6101 26.0637 10.5713 26.0062 10.504C25.9488 10.4368 25.9236 10.3478 25.9372 10.2603L27.4055 0.943685C27.4446 0.698191 27.6563 0.517491 27.9049 0.517368ZM29.7999 5.22465C30.763 5.22465 31.759 5.22465 31.9577 3.92041C32.0298 3.4627 31.9722 3.13102 31.7815 2.90755C31.462 2.53417 30.8427 2.53417 30.1868 2.53417H29.9352C29.7863 2.53417 29.6598 2.64239 29.6364 2.7895L29.2517 5.22465L29.7999 5.22465Z" fill="#009CDE"/>
<path fill-rule="evenodd" clip-rule="evenodd" d="M14.7428 3.87824H16.4827L16.4823 3.87871C16.5709 3.8786 16.6551 3.9173 16.7128 3.98461C16.7705 4.05192 16.7958 4.1411 16.7821 4.22867L15.8414 10.1844C15.8025 10.4304 15.5907 10.6108 15.3424 10.6108H13.7759C13.6872 10.6109 13.603 10.5722 13.5454 10.5049C13.4878 10.4375 13.4626 10.3483 13.4765 10.2608L13.5543 9.77734C13.5543 9.77734 12.6951 10.7724 11.1453 10.7724C10.2426 10.7724 9.48504 10.5124 8.95426 9.8879C8.37615 9.20814 8.14004 8.23417 8.30635 7.21429C8.62585 5.17171 10.2679 3.71474 12.19 3.71474C13.0286 3.71474 13.8686 3.89792 14.2453 4.44463L14.3671 4.62078L14.443 4.1345C14.4661 3.98685 14.5933 3.87806 14.7428 3.87824ZM1.98843 0.517368H5.62196L5.62243 0.516899C6.83813 0.516899 7.75401 0.838277 8.27074 1.44543C8.74063 1.99776 8.89663 2.78668 8.73407 3.79017C8.37334 6.08619 6.99226 7.24427 4.59833 7.24427H3.44868C3.20039 7.24427 2.98863 7.4251 2.95022 7.67059L2.55342 10.184C2.51453 10.4295 2.30325 10.6103 2.05495 10.6103H0.319704C0.231179 10.6103 0.147095 10.5715 0.0896026 10.5042C0.0321099 10.4369 0.00697318 10.3478 0.0208138 10.2603L1.4895 0.943685C1.52838 0.698201 1.74013 0.517368 1.98843 0.517368ZM3.88296 5.22465C4.84662 5.22465 5.84261 5.22465 6.04125 3.92041C6.11339 3.4627 6.05577 3.13102 5.86463 2.90755C5.54513 2.53417 4.9258 2.53417 4.26993 2.53417H4.01835C3.86938 2.53417 3.74289 2.64239 3.71946 2.7895L3.33484 5.22465L3.88296 5.22465ZM14.0579 7.26535C13.8892 8.25947 13.1008 8.92705 12.094 8.92705C11.5895 8.92705 11.1852 8.76449 10.9256 8.45716C10.668 8.15265 10.5714 7.71837 10.653 7.23537C10.8094 6.24969 11.6115 5.56102 12.6028 5.56102C13.097 5.56102 13.4976 5.72499 13.7627 6.03512C14.0293 6.3476 14.1342 6.78422 14.0579 7.26535Z" fill="#003087"/>
<path fill-rule="evenodd" clip-rule="evenodd" d="M40.6591 3.87824H42.3991L42.3986 3.87871C42.4872 3.8786 42.5715 3.9173 42.6291 3.98461C42.6868 4.05192 42.7121 4.1411 42.6984 4.22867L41.7577 10.1844C41.7184 10.4304 41.5066 10.6108 41.2583 10.6108H39.6922C39.6036 10.6109 39.5195 10.5722 39.462 10.5048C39.4046 10.4374 39.3796 10.3482 39.3938 10.2608L39.4715 9.77734C39.4715 9.77734 38.6124 10.7724 37.0622 10.7724C36.1594 10.7724 35.4019 10.5124 34.8711 9.8879C34.293 9.20814 34.0564 8.23417 34.2227 7.21429C34.5427 5.17171 36.1847 3.71474 38.1064 3.71474C38.945 3.71474 39.785 3.89792 40.1616 4.44463L40.2834 4.62078L40.3593 4.1345C40.3824 3.98685 40.5097 3.87806 40.6591 3.87824ZM38.0104 8.92705C39.0171 8.92705 39.8056 8.25947 39.9742 7.26535C40.0506 6.78422 39.9456 6.3476 39.6791 6.03512C39.4139 5.72499 39.0134 5.56102 38.5191 5.56102C37.5274 5.56102 36.7258 6.24969 36.5693 7.23537C36.4878 7.71837 36.5843 8.15265 36.842 8.45716C37.1015 8.76449 37.5058 8.92705 38.0104 8.92705Z" fill="#009CDE"/>
<path d="M25.7497 3.87871L24.0004 3.87871C23.8331 3.87871 23.6771 3.96163 23.5835 4.1003L21.1708 7.65325L20.1481 4.23897C20.084 4.02514 19.8874 3.87856 19.6641 3.87824H17.9453C17.8475 3.87829 17.7557 3.92551 17.6989 4.00506C17.642 4.08461 17.627 4.18671 17.6586 4.27926L19.584 9.93194L17.7729 12.4875C17.7077 12.58 17.6994 12.7011 17.7514 12.8016C17.8034 12.9021 17.9071 12.9652 18.0203 12.9653H19.7677C19.9326 12.9653 20.0877 12.8843 20.1823 12.7484L25.998 4.35422C26.0624 4.26173 26.07 4.14115 26.0179 4.04127C25.9657 3.94139 25.8624 3.87875 25.7497 3.87871Z" fill="#003087"/>
<path d="M44.4496 0.773626L42.958 10.2608C42.9443 10.3483 42.9696 10.4374 43.0271 10.5047C43.0847 10.572 43.1688 10.6107 43.2573 10.6108H44.757C45.0052 10.6108 45.217 10.4299 45.2559 10.1844L46.7264 0.867322C46.7403 0.779804 46.7151 0.690613 46.6575 0.62328C46.5999 0.555946 46.5157 0.517238 46.4271 0.517367H44.749C44.5997 0.516987 44.4725 0.625658 44.4496 0.773158" fill="#009CDE"/>
</svg>
