<svg width="20" height="22" viewBox="0 0 20 22" fill="none" xmlns="http://www.w3.org/2000/svg">
<path fill-rule="evenodd" clip-rule="evenodd" d="M15.8334 5.5C15.8334 8.53757 13.2217 11 10 11C6.77836 11 4.16669 8.53757 4.16669 5.5C4.16669 2.46243 6.77836 0 10 0C13.2217 0 15.8334 2.46243 15.8334 5.5ZM14.1667 5.5C14.1667 3.33031 12.3012 1.57143 10 1.57143C7.69883 1.57143 5.83335 3.33031 5.83335 5.5C5.83335 7.66969 7.69883 9.42857 10 9.42857C12.3012 9.42857 14.1667 7.66969 14.1667 5.5Z" fill="#BBBBBB"/>
<path fill-rule="evenodd" clip-rule="evenodd" d="M9.16667 12.5714H10.8333C15.8959 12.5714 20 16.441 20 21.2143C20 21.6482 19.6269 22 19.1667 22H0.833333C0.373096 22 0 21.6482 0 21.2143C0 16.441 4.10406 12.5714 9.16667 12.5714ZM9.16667 14.1429C5.34837 14.1446 2.14092 16.8508 1.71667 20.4286H18.2833C17.8591 16.8508 14.6516 14.1446 10.8333 14.1429H9.16667Z" fill="#BBBBBB"/>
</svg>
