<svg width="42" height="12" viewBox="0 0 42 12" fill="none" xmlns="http://www.w3.org/2000/svg">
<path fill-rule="evenodd" clip-rule="evenodd" d="M40.6331 8.79374C39.9168 8.79374 39.2842 9.33243 39.2842 10.1293C39.2842 10.9246 39.9168 11.4638 40.6331 11.4638C41.3518 11.4638 41.9834 10.9246 41.9834 10.1293C41.9834 9.33243 41.3516 8.79374 40.6331 8.79374ZM40.6342 9.0089C41.266 9.0089 41.7247 9.48251 41.7247 10.1293C41.7247 10.7743 41.266 11.2479 40.6342 11.2479C40.0034 11.2479 39.5442 10.775 39.5442 10.1293C39.5442 9.48251 40.0034 9.0089 40.6342 9.0089ZM40.3476 10.9186V10.1868L40.349 10.1873V10.1865H40.5786C40.7352 10.1865 40.8081 10.2364 40.8496 10.3731C40.8713 10.4511 40.8824 10.5356 40.8933 10.6188C40.9075 10.7272 40.9214 10.8333 40.9582 10.9191H41.2379C41.1935 10.8684 41.1662 10.675 41.1457 10.5302L41.1457 10.5301L41.1457 10.5301C41.1424 10.5071 41.1393 10.4854 41.1364 10.4657C41.1083 10.2429 41.0582 10.1212 40.9218 10.0994V10.0926C41.0789 10.0718 41.2009 9.92884 41.2009 9.74831C41.2009 9.45522 41.043 9.30488 40.6987 9.30488H40.1112V10.9186H40.3476ZM40.6407 9.97817C40.8703 9.97817 40.9359 9.85589 40.9359 9.74805C40.9359 9.62053 40.8703 9.51977 40.6407 9.51977H40.3476V9.97869H40.6407V9.97817Z" fill="#FF5A00"/>
<path fill-rule="evenodd" clip-rule="evenodd" d="M22.0403 0.00786591V11.2311H28.2689L31.5126 11.2311L33.0541 9.48697L34.6093 11.2311H37.9682L34.7699 7.65444L37.9243 4.10666H34.6964L33.1848 5.83739L31.6138 4.10666H28.2689H24.6786V2.50949H28.2689V0.00786591H22.0403ZM28.2689 4.10666L31.4391 7.66939L28.2689 11.2311V8.72315H24.6786V6.51383H28.2689V4.10666Z" fill="#FF5A00"/>
<path fill-rule="evenodd" clip-rule="evenodd" d="M19.4116 0.00839233V4.60101H19.3825C18.8008 3.93244 18.0737 3.69943 17.2306 3.69943C15.5031 3.69943 14.2016 4.87468 13.7448 6.42724C13.2237 4.7162 11.88 3.66742 9.88791 3.66742C8.26975 3.66742 6.99243 4.39346 6.32518 5.57684V4.1064H2.98101V2.50976H6.63086V0.00839233H0V11.2311H2.98101V6.51383H5.95232C5.86079 6.87658 5.81504 7.24936 5.81614 7.62348C5.81614 9.96347 7.60433 11.6079 9.88738 11.6079C11.8065 11.6079 13.0723 10.706 13.7411 9.06426H11.1862C10.8409 9.55834 10.5785 9.70423 9.88765 9.70423C9.08683 9.70423 8.3957 9.00523 8.3957 8.17765H13.5978C13.8235 10.0367 15.2719 11.6396 17.2598 11.6396C18.1173 11.6396 18.9023 11.218 19.3822 10.5056H19.4111V11.2327H22.0395V0.00839233H19.4116ZM8.47861 6.54742C8.6447 5.83424 9.19756 5.36824 9.88765 5.36824C10.6475 5.36824 11.1723 5.81981 11.3101 6.54742H8.47861ZM16.2461 7.67832C16.2461 8.62082 16.8481 9.52318 17.8166 9.52318C18.8771 9.52318 19.3353 8.63289 19.3353 7.67832C19.3353 6.67126 18.9026 5.70278 17.8166 5.70278C16.7699 5.70278 16.2461 6.67074 16.2461 7.67832Z" fill="#29007C"/>
</svg>
