<svg width="27" height="25" viewBox="0 0 27 25" fill="none" xmlns="http://www.w3.org/2000/svg">
<path fill-rule="evenodd" clip-rule="evenodd" d="M23.4201 4.78752C23.3056 4.78752 23.1948 4.81389 23.0848 4.84007L23.0496 4.8484V4.22852C23.0496 2.44822 22.1582 1 21.0611 1H5.9383C4.84178 1 3.9498 2.44822 3.9498 4.22852V4.82995C3.82765 4.80136 3.70322 4.78567 3.57823 4.78567C3.19644 4.78567 2.82601 4.92035 2.47831 5.18693C1.58064 5.87507 1 7.36111 1 8.97261V16.8354C1 18.8334 2.0022 20.4606 3.2328 20.4606H4.93269L4.04411 23.3322C3.97309 23.5591 4.02991 23.8367 4.16967 23.9511C4.21058 23.9843 4.25376 24 4.2975 24C4.40204 24 4.50147 23.9068 4.55146 23.7473L5.56901 20.4606H21.4304L22.4491 23.7473C22.4991 23.9078 22.5991 24 22.7019 24C22.7451 24 22.7883 23.9843 22.8298 23.9511C22.9707 23.8367 23.0263 23.5591 22.9565 23.3322L22.0673 20.4606H23.7672C24.9989 20.4606 26 18.8334 26 16.8354V8.97353C25.9989 6.6656 24.8427 4.78752 23.4201 4.78752ZM4.51794 4.22852C4.51794 2.95741 5.15483 1.92244 5.9383 1.92244H21.0611C21.8446 1.92244 22.4815 2.95741 22.4815 4.22852V5.08454C21.523 5.69704 20.8407 7.2043 20.8407 8.97353C20.8407 10.585 21.4208 12.0711 22.3196 12.7601C22.3684 12.7979 22.4008 12.8782 22.4008 12.9658V13.499H4.60032V12.9658C4.60032 12.8773 4.63043 12.7979 4.68043 12.7601C5.96671 11.774 6.51894 9.27424 5.91217 7.18585C5.62809 6.20807 5.11961 5.47197 4.51851 5.08731L4.51794 4.22852ZM23.7661 19.5382C24.6842 19.5382 25.4307 18.3252 25.4307 16.8354V8.97261C25.4307 7.17201 24.5285 5.70811 23.4201 5.70811C22.3116 5.70811 21.4094 7.17294 21.4094 8.97261C21.4094 10.2299 21.8622 11.3885 22.5622 11.9253C22.8087 12.1144 22.9684 12.5231 22.9684 12.9649V13.9593C22.9684 14.2139 22.8406 14.4205 22.6843 14.4205H4.31625C4.15888 14.4205 4.03218 14.2139 4.03218 13.9593V12.9649C4.03218 12.5221 4.19069 12.1144 4.4384 11.9253C5.44004 11.1579 5.87069 9.20875 5.398 7.58065C5.06734 6.44329 4.35261 5.70903 3.57823 5.70903C3.28053 5.70903 2.99248 5.81419 2.72147 6.02174C2.02152 6.55767 1.56871 7.71625 1.56871 8.97353V16.8354C1.56871 18.3252 2.31582 19.5382 3.23337 19.5382H23.7661Z" fill="#BBBBBB"/>
<path d="M23.0848 4.84007L23.1309 5.03468L23.1311 5.03464L23.0848 4.84007ZM23.0496 4.8484H22.8496V5.10136L23.0958 5.04301L23.0496 4.8484ZM3.9498 4.82995L3.90421 5.02469L4.1498 5.08218V4.82995H3.9498ZM2.47831 5.18693L2.59999 5.34566L2.6 5.34565L2.47831 5.18693ZM4.93269 20.4606L5.12375 20.5197L5.20393 20.2606H4.93269V20.4606ZM4.04411 23.3322L4.23498 23.3919L4.23517 23.3913L4.04411 23.3322ZM4.16967 23.9511L4.043 24.1059L4.04362 24.1064L4.16967 23.9511ZM4.55146 23.7473L4.74232 23.807L4.74252 23.8064L4.55146 23.7473ZM5.56901 20.4606V20.2606H5.42156L5.37795 20.4015L5.56901 20.4606ZM21.4304 20.4606L21.6215 20.4014L21.5778 20.2606H21.4304V20.4606ZM22.4491 23.7473L22.2581 23.8065L22.2582 23.8067L22.4491 23.7473ZM22.8298 23.9511L22.9548 24.1072L22.9558 24.1064L22.8298 23.9511ZM22.9565 23.3322L23.1476 23.2733L23.1475 23.273L22.9565 23.3322ZM22.0673 20.4606V20.2606H21.796L21.8763 20.5198L22.0673 20.4606ZM26 8.97353H26.2V8.97343L26 8.97353ZM4.51794 4.22852H4.31794V4.22866L4.51794 4.22852ZM22.4815 5.08454L22.5892 5.25307L22.6815 5.19408V5.08454H22.4815ZM22.3196 12.7601L22.442 12.602L22.4413 12.6014L22.3196 12.7601ZM22.4008 13.499V13.699H22.6008V13.499H22.4008ZM4.60032 13.499H4.40032V13.699H4.60032V13.499ZM4.68043 12.7601L4.80109 12.9196L4.80211 12.9189L4.68043 12.7601ZM5.91217 7.18585L5.72011 7.24165L5.72011 7.24165L5.91217 7.18585ZM4.51851 5.08731L4.31851 5.08744L4.31858 5.19682L4.41071 5.25577L4.51851 5.08731ZM22.5622 11.9253L22.4404 12.084L22.4405 12.084L22.5622 11.9253ZM4.4384 11.9253L4.55976 12.0843L4.56004 12.0841L4.4384 11.9253ZM5.398 7.58065L5.59006 7.52489L5.59004 7.52482L5.398 7.58065ZM2.72147 6.02174L2.84306 6.18053L2.84308 6.18052L2.72147 6.02174ZM23.1311 5.03464C23.2449 5.00754 23.3329 4.98752 23.4201 4.98752V4.58752C23.2782 4.58752 23.1446 4.62023 23.0385 4.64551L23.1311 5.03464ZM23.0958 5.04301L23.1309 5.03468L23.0386 4.64547L23.0035 4.65379L23.0958 5.04301ZM22.8496 4.22852V4.8484H23.2496V4.22852H22.8496ZM21.0611 1.2C21.5142 1.2 21.9568 1.49986 22.2965 2.05152C22.6341 2.59984 22.8496 3.36942 22.8496 4.22852H23.2496C23.2496 3.30733 23.0194 2.46264 22.6371 1.84178C22.2568 1.22425 21.7051 0.8 21.0611 0.8V1.2ZM5.9383 1.2H21.0611V0.8H5.9383V1.2ZM4.1498 4.22852C4.1498 3.36944 4.36542 2.59987 4.70315 2.05153C5.04294 1.49984 5.48551 1.2 5.9383 1.2V0.8C5.29458 0.8 4.74289 1.22427 4.36256 1.84176C3.98017 2.46261 3.7498 3.3073 3.7498 4.22852H4.1498ZM4.1498 4.82995V4.22852H3.7498V4.82995H4.1498ZM3.57823 4.98567C3.68648 4.98567 3.79558 4.99926 3.90421 5.02469L3.99539 4.63522C3.85972 4.60346 3.71997 4.58567 3.57823 4.58567V4.98567ZM2.6 5.34565C2.91797 5.10186 3.24656 4.98567 3.57823 4.98567V4.58567C3.14632 4.58567 2.73405 4.73884 2.35662 5.02821L2.6 5.34565ZM1.2 8.97261C1.2 7.39554 1.7702 5.98176 2.59999 5.34566L2.35663 5.02821C1.39108 5.76838 0.8 7.32668 0.8 8.97261H1.2ZM1.2 16.8354V8.97261H0.8V16.8354H1.2ZM3.2328 20.2606C2.71303 20.2606 2.20938 19.9161 1.82522 19.2924C1.44316 18.6721 1.2 17.8033 1.2 16.8354H0.8C0.8 17.8656 1.05795 18.8094 1.48464 19.5022C1.90923 20.1915 2.52197 20.6606 3.2328 20.6606V20.2606ZM4.93269 20.2606H3.2328V20.6606H4.93269V20.2606ZM4.23517 23.3913L5.12375 20.5197L4.74162 20.4015L3.85305 23.273L4.23517 23.3913ZM4.29634 23.7963C4.27433 23.7783 4.24119 23.7293 4.22383 23.644C4.20722 23.5623 4.21036 23.4706 4.23498 23.3919L3.85324 23.2724C3.80685 23.4207 3.80288 23.5812 3.83186 23.7237C3.8601 23.8625 3.92524 24.0095 4.043 24.1059L4.29634 23.7963ZM4.2975 23.8C4.30003 23.8 4.30221 23.8005 4.30317 23.8009C4.3039 23.8012 4.30133 23.8004 4.29572 23.7958L4.04362 24.1064C4.11563 24.1648 4.20233 24.2 4.2975 24.2V23.8ZM4.36061 23.6875C4.34318 23.7431 4.32068 23.7752 4.30503 23.7905C4.29012 23.8051 4.28711 23.8 4.2975 23.8V24.2C4.53153 24.2 4.68143 24.0014 4.74232 23.807L4.36061 23.6875ZM5.37795 20.4015L4.36041 23.6881L4.74252 23.8064L5.76006 20.5198L5.37795 20.4015ZM21.4304 20.2606H5.56901V20.6606H21.4304V20.2606ZM22.6401 23.688L21.6215 20.4014L21.2394 20.5198L22.2581 23.8065L22.6401 23.688ZM22.7019 23.8C22.7133 23.8 22.7105 23.8055 22.6955 23.7908C22.68 23.7756 22.6574 23.7436 22.6401 23.6878L22.2582 23.8067C22.3192 24.0026 22.4698 24.2 22.7019 24.2V23.8ZM22.7048 23.795C22.6985 23.8 22.6954 23.8011 22.6958 23.8009C22.6965 23.8007 22.6988 23.8 22.7019 23.8V24.2C22.797 24.2 22.8832 24.1646 22.9548 24.1072L22.7048 23.795ZM22.7653 23.391C22.7897 23.4702 22.7928 23.5623 22.7762 23.644C22.7588 23.7293 22.7258 23.7779 22.7037 23.7958L22.9558 24.1064C23.0747 24.0099 23.1399 23.8625 23.1681 23.7237C23.1971 23.5812 23.1931 23.421 23.1476 23.2733L22.7653 23.391ZM21.8763 20.5198L22.7654 23.3913L23.1475 23.273L22.2584 20.4015L21.8763 20.5198ZM23.7672 20.2606H22.0673V20.6606H23.7672V20.2606ZM25.8 16.8354C25.8 17.8034 25.5571 18.6721 25.1752 19.2924C24.7912 19.9161 24.2876 20.2606 23.7672 20.2606V20.6606C24.4786 20.6606 25.0913 20.1916 25.5158 19.5021C25.9424 18.8093 26.2 17.8655 26.2 16.8354H25.8ZM25.8 8.97353V16.8354H26.2V8.97353H25.8ZM23.4201 4.98752C24.0359 4.98752 24.6261 5.39485 25.0728 6.11996C25.5175 6.84173 25.7994 7.8507 25.8 8.97363L26.2 8.97343C26.1994 7.78843 25.9027 6.7044 25.4134 5.91014C24.9261 5.11923 24.2268 4.58752 23.4201 4.58752V4.98752ZM5.9383 1.72244C5.45107 1.72244 5.04142 2.04343 4.76402 2.49395C4.48454 2.94783 4.31794 3.5619 4.31794 4.22852H4.71794C4.71794 3.62403 4.86979 3.08506 5.10462 2.70368C5.34153 2.31893 5.64206 2.12244 5.9383 2.12244V1.72244ZM21.0611 1.72244H5.9383V2.12244H21.0611V1.72244ZM22.6815 4.22852C22.6815 3.5619 22.5149 2.94783 22.2354 2.49395C21.958 2.04343 21.5484 1.72244 21.0611 1.72244V2.12244C21.3574 2.12244 21.6579 2.31893 21.8948 2.70368C22.1296 3.08506 22.2815 3.62403 22.2815 4.22852H22.6815ZM22.6815 5.08454V4.22852H22.2815V5.08454H22.6815ZM21.0407 8.97353C21.0407 7.24136 21.7103 5.8147 22.5892 5.25307L22.3738 4.91602C21.3357 5.57938 20.6407 7.16724 20.6407 8.97353H21.0407ZM22.4413 12.6014C21.6103 11.9644 21.0407 10.5506 21.0407 8.97353H20.6407C20.6407 10.6194 21.2312 12.1777 22.1979 12.9188L22.4413 12.6014ZM22.6008 12.9658C22.6008 12.8412 22.5566 12.6907 22.442 12.602L22.1972 12.9183C22.194 12.9158 22.1918 12.9137 22.1906 12.9124C22.1899 12.9117 22.1895 12.9112 22.1892 12.9108C22.1891 12.9106 22.189 12.9105 22.1889 12.9104C22.1888 12.9103 22.1888 12.9103 22.1888 12.9103C22.1888 12.9103 22.1888 12.9103 22.1889 12.9104C22.189 12.9105 22.189 12.9106 22.1891 12.9108C22.1893 12.9111 22.1896 12.9116 22.19 12.9123C22.1907 12.9137 22.1916 12.9156 22.1927 12.9182C22.197 12.9291 22.2008 12.9458 22.2008 12.9658H22.6008ZM22.6008 13.499V12.9658H22.2008V13.499H22.6008ZM4.60032 13.699H22.4008V13.299H4.60032V13.699ZM4.40032 12.9658V13.499H4.80032V12.9658H4.40032ZM4.55977 12.6006C4.43988 12.6913 4.40032 12.8447 4.40032 12.9658H4.80032C4.80032 12.9434 4.80427 12.9262 4.80817 12.9161C4.81252 12.9048 4.81348 12.9103 4.80109 12.9196L4.55977 12.6006ZM5.72011 7.24165C6.01355 8.2516 6.02714 9.36453 5.8109 10.3432C5.5938 11.3258 5.15134 12.1471 4.55875 12.6014L4.80211 12.9189C5.4958 12.3871 5.9726 11.4654 6.20148 10.4295C6.43124 9.38967 6.41756 8.20849 6.10422 7.13005L5.72011 7.24165ZM4.41071 5.25577C4.95957 5.607 5.44521 6.29546 5.72011 7.24165L6.10422 7.13005C5.81098 6.12068 5.27964 5.33693 4.62631 4.91885L4.41071 5.25577ZM4.31794 4.22866L4.31851 5.08744L4.71851 5.08718L4.71794 4.22839L4.31794 4.22866ZM25.2307 16.8354C25.2307 17.5492 25.0515 18.1874 24.7724 18.6406C24.4912 19.0972 24.1296 19.3382 23.7661 19.3382V19.7382C24.3206 19.7382 24.7913 19.3727 25.113 18.8503C25.4367 18.3246 25.6307 17.6114 25.6307 16.8354H25.2307ZM25.2307 8.97261V16.8354H25.6307V8.97261H25.2307ZM23.4201 5.90811C23.8788 5.90811 24.3269 6.21189 24.6708 6.77004C25.0125 7.32482 25.2307 8.10339 25.2307 8.97261H25.6307C25.6307 8.04123 25.3978 7.18755 25.0113 6.56024C24.627 5.93628 24.0697 5.50811 23.4201 5.50811V5.90811ZM21.6094 8.97261C21.6094 8.10386 21.8276 7.32529 22.1694 6.77037C22.5132 6.21206 22.9613 5.90811 23.4201 5.90811V5.50811C22.7703 5.50811 22.2131 5.93657 21.8288 6.5606C21.4423 7.188 21.2094 8.04168 21.2094 8.97261H21.6094ZM22.6839 11.7666C22.0518 11.2818 21.6094 10.1954 21.6094 8.97261H21.2094C21.2094 10.2643 21.6727 11.4951 22.4404 12.084L22.6839 11.7666ZM23.1684 12.9649C23.1684 12.4886 22.9983 12.0077 22.6839 11.7666L22.4405 12.084C22.6192 12.2211 22.7684 12.5576 22.7684 12.9649H23.1684ZM23.1684 13.9593V12.9649H22.7684V13.9593H23.1684ZM22.6843 14.6205C22.8579 14.6205 22.9834 14.5067 23.0552 14.3904C23.129 14.2706 23.1684 14.1178 23.1684 13.9593H22.7684C22.7684 14.0554 22.7439 14.1331 22.7147 14.1804C22.6835 14.2311 22.667 14.2205 22.6843 14.2205V14.6205ZM4.31625 14.6205H22.6843V14.2205H4.31625V14.6205ZM3.83218 13.9593C3.83218 14.1174 3.87111 14.2703 3.94484 14.3902C4.01668 14.5069 4.14235 14.6205 4.31625 14.6205V14.2205C4.33278 14.2205 4.31641 14.2308 4.28556 14.1806C4.25659 14.1335 4.23218 14.0558 4.23218 13.9593H3.83218ZM3.83218 12.9649V13.9593H4.23218V12.9649H3.83218ZM4.31704 11.7664C4.00096 12.0076 3.83218 12.488 3.83218 12.9649H4.23218C4.23218 12.5562 4.38042 12.2212 4.55976 12.0843L4.31704 11.7664ZM5.20593 7.63642C5.43233 8.41623 5.44281 9.27642 5.27578 10.0326C5.10788 10.7927 4.76696 11.4216 4.31676 11.7666L4.56004 12.0841C5.11148 11.6616 5.48671 10.9322 5.66637 10.1189C5.8469 9.30159 5.83635 8.37318 5.59006 7.52489L5.20593 7.63642ZM3.57823 5.90903C4.21742 5.90903 4.88422 6.52986 5.20595 7.63649L5.59004 7.52482C5.25045 6.35672 4.48781 5.50903 3.57823 5.50903V5.90903ZM2.84308 6.18052C3.08454 5.9956 3.3308 5.90903 3.57823 5.90903V5.50903C3.23026 5.50903 2.90041 5.63278 2.59987 5.86295L2.84308 6.18052ZM1.76871 8.97353C1.76871 7.75063 2.2111 6.66441 2.84306 6.18053L2.59989 5.86294C1.83194 6.45094 1.36871 7.68187 1.36871 8.97353H1.76871ZM1.76871 16.8354V8.97353H1.36871V16.8354H1.76871ZM3.23337 19.3382C2.87011 19.3382 2.5085 19.0972 2.22725 18.6406C1.9481 18.1873 1.76871 17.5492 1.76871 16.8354H1.36871C1.36871 17.6114 1.56288 18.3246 1.88667 18.8503C2.20836 19.3727 2.67908 19.7382 3.23337 19.7382V19.3382ZM23.7661 19.3382H3.23337V19.7382H23.7661V19.3382Z" fill="#BBBBBB"/>
<path fill-rule="evenodd" clip-rule="evenodd" d="M18.7464 5.60579C18.7464 6.40554 18.0943 7.05678 17.2945 7.05678C16.4948 7.05678 15.8426 6.40554 15.8426 5.60487C15.8426 4.80419 16.4948 4.15295 17.2945 4.15295C18.0943 4.15295 18.7464 4.80604 18.7464 5.60579ZM17.824 5.60487C17.824 5.31338 17.586 5.07539 17.2945 5.07539C17.003 5.07539 16.765 5.3143 16.765 5.60579C16.765 5.89728 17.003 6.13435 17.2945 6.13435C17.586 6.13435 17.824 5.89636 17.824 5.60487Z" fill="#BBBBBB"/>
<path d="M17.2945 7.25678C18.2045 7.25678 18.9464 6.51616 18.9464 5.60579H18.5464C18.5464 6.29492 17.984 6.85678 17.2945 6.85678V7.25678ZM15.6426 5.60487C15.6426 6.51608 16.3844 7.25678 17.2945 7.25678V6.85678C16.6051 6.85678 16.0426 6.295 16.0426 5.60487H15.6426ZM17.2945 3.95295C16.3844 3.95295 15.6426 4.69365 15.6426 5.60487H16.0426C16.0426 4.91473 16.6051 4.35295 17.2945 4.35295V3.95295ZM18.9464 5.60579C18.9464 4.69575 18.2049 3.95295 17.2945 3.95295V4.35295C17.9836 4.35295 18.5464 4.91633 18.5464 5.60579H18.9464ZM17.2945 5.27539C17.4755 5.27539 17.624 5.42383 17.624 5.60487H18.024C18.024 5.20292 17.6964 4.87539 17.2945 4.87539V5.27539ZM16.965 5.60579C16.965 5.4243 17.1139 5.27539 17.2945 5.27539V4.87539C16.8921 4.87539 16.565 5.2043 16.565 5.60579H16.965ZM17.2945 5.93435C17.113 5.93435 16.965 5.78637 16.965 5.60579H16.565C16.565 6.00819 16.893 6.33435 17.2945 6.33435V5.93435ZM17.624 5.60487C17.624 5.7859 17.4755 5.93435 17.2945 5.93435V6.33435C17.6964 6.33435 18.024 6.00681 18.024 5.60487H17.624Z" fill="#BBBBBB"/>
<path fill-rule="evenodd" clip-rule="evenodd" d="M18.7464 9.41821C18.7464 10.2189 18.0943 10.8701 17.2945 10.8701C16.4948 10.8701 15.8426 10.2189 15.8426 9.41821C15.8426 8.61846 16.4948 7.96722 17.2945 7.96722C18.0943 7.96722 18.7464 8.61846 18.7464 9.41821ZM17.824 9.41821C17.824 9.12673 17.586 8.88966 17.2945 8.88966C17.003 8.88966 16.765 9.12673 16.765 9.41821C16.765 9.71063 17.003 9.94769 17.2945 9.94769C17.586 9.94769 17.824 9.71063 17.824 9.41821Z" fill="#BBBBBB"/>
<path d="M17.2945 11.0701C18.2046 11.0701 18.9464 10.3294 18.9464 9.41821H18.5464C18.5464 10.1083 17.9839 10.6701 17.2945 10.6701V11.0701ZM15.6426 9.41821C15.6426 10.3294 16.3844 11.0701 17.2945 11.0701V10.6701C16.6051 10.6701 16.0426 10.1083 16.0426 9.41821H15.6426ZM17.2945 7.76722C16.3845 7.76722 15.6426 8.50784 15.6426 9.41821H16.0426C16.0426 8.72909 16.605 8.16722 17.2945 8.16722V7.76722ZM18.9464 9.41821C18.9464 8.50784 18.2045 7.76722 17.2945 7.76722V8.16722C17.984 8.16722 18.5464 8.72909 18.5464 9.41821H18.9464ZM17.2945 9.08966C17.476 9.08966 17.624 9.23764 17.624 9.41821H18.024C18.024 9.01581 17.696 8.68966 17.2945 8.68966V9.08966ZM16.965 9.41821C16.965 9.23764 17.113 9.08966 17.2945 9.08966V8.68966C16.893 8.68966 16.565 9.01581 16.565 9.41821H16.965ZM17.2945 9.74769C17.1132 9.74769 16.965 9.59994 16.965 9.41821H16.565C16.565 9.82131 16.8928 10.1477 17.2945 10.1477V9.74769ZM17.624 9.41821C17.624 9.59994 17.4758 9.74769 17.2945 9.74769V10.1477C17.6962 10.1477 18.024 9.82131 18.024 9.41821H17.624Z" fill="#BBBBBB"/>
<path fill-rule="evenodd" clip-rule="evenodd" d="M11.6317 5.60581C11.6317 6.40556 10.9795 7.0568 10.1798 7.0568C9.38001 7.0568 8.72784 6.40649 8.72784 5.60581C8.72784 4.80514 9.38001 4.1539 10.1798 4.1539C10.9795 4.1539 11.6317 4.80606 11.6317 5.60581ZM10.7092 5.60489C10.7092 5.3134 10.4712 5.07541 10.1798 5.07541C9.88827 5.07541 9.65028 5.31432 9.65028 5.60489C9.65028 5.89638 9.88827 6.13345 10.1798 6.13345C10.4712 6.13345 10.7092 5.89638 10.7092 5.60489Z" fill="#BBBBBB"/>
<path d="M10.1798 7.2568C11.0898 7.2568 11.8317 6.51619 11.8317 5.60581H11.4317C11.4317 6.29494 10.8692 6.8568 10.1798 6.8568V7.2568ZM8.52784 5.60581C8.52784 6.51719 9.2698 7.2568 10.1798 7.2568V6.8568C9.49021 6.8568 8.92784 6.29578 8.92784 5.60581H8.52784ZM10.1798 3.9539C9.26963 3.9539 8.52784 4.6946 8.52784 5.60581H8.92784C8.92784 4.91568 9.49038 4.3539 10.1798 4.3539V3.9539ZM11.8317 5.60581C11.8317 4.6956 11.09 3.9539 10.1798 3.9539V4.3539C10.8691 4.3539 11.4317 4.91652 11.4317 5.60581H11.8317ZM10.1798 5.27541C10.3608 5.27541 10.5092 5.42386 10.5092 5.60489H10.9092C10.9092 5.20294 10.5817 4.87541 10.1798 4.87541V5.27541ZM9.85028 5.60489C9.85028 5.42455 9.99895 5.27541 10.1798 5.27541V4.87541C9.77758 4.87541 9.45028 5.20409 9.45028 5.60489H9.85028ZM10.1798 5.93345C9.99827 5.93345 9.85028 5.78547 9.85028 5.60489H9.45028C9.45028 6.00729 9.77826 6.33345 10.1798 6.33345V5.93345ZM10.5092 5.60489C10.5092 5.78547 10.3612 5.93345 10.1798 5.93345V6.33345C10.5812 6.33345 10.9092 6.00729 10.9092 5.60489H10.5092Z" fill="#BBBBBB"/>
<path fill-rule="evenodd" clip-rule="evenodd" d="M11.6317 9.41821C11.6317 10.2189 10.9795 10.8701 10.1798 10.8701C9.38001 10.8701 8.72784 10.2189 8.72784 9.41821C8.72784 8.61846 9.38001 7.96722 10.1798 7.96722C10.9795 7.96722 11.6317 8.61846 11.6317 9.41821ZM10.7092 9.41821C10.7092 9.12673 10.4712 8.88966 10.1798 8.88966C9.88827 8.88966 9.65028 9.12673 9.65028 9.41821C9.65028 9.71063 9.88827 9.94769 10.1798 9.94769C10.4712 9.94769 10.7092 9.71063 10.7092 9.41821Z" fill="#BBBBBB"/>
<path d="M10.1798 11.0701C11.0899 11.0701 11.8317 10.3294 11.8317 9.41821H11.4317C11.4317 10.1083 10.8691 10.6701 10.1798 10.6701V11.0701ZM8.52784 9.41821C8.52784 10.3294 9.26963 11.0701 10.1798 11.0701V10.6701C9.49038 10.6701 8.92784 10.1083 8.92784 9.41821H8.52784ZM10.1798 7.76722C9.26971 7.76722 8.52784 8.50784 8.52784 9.41821H8.92784C8.92784 8.72909 9.4903 8.16722 10.1798 8.16722V7.76722ZM11.8317 9.41821C11.8317 8.50784 11.0898 7.76722 10.1798 7.76722V8.16722C10.8692 8.16722 11.4317 8.72909 11.4317 9.41821H11.8317ZM10.1798 9.08966C10.3612 9.08966 10.5092 9.23764 10.5092 9.41821H10.9092C10.9092 9.01581 10.5812 8.68966 10.1798 8.68966V9.08966ZM9.85028 9.41821C9.85028 9.23764 9.99827 9.08966 10.1798 9.08966V8.68966C9.77826 8.68966 9.45028 9.01581 9.45028 9.41821H9.85028ZM10.1798 9.74769C9.9985 9.74769 9.85028 9.59994 9.85028 9.41821H9.45028C9.45028 9.82131 9.77804 10.1477 10.1798 10.1477V9.74769ZM10.5092 9.41821C10.5092 9.59994 10.361 9.74769 10.1798 9.74769V10.1477C10.5815 10.1477 10.9092 9.82131 10.9092 9.41821H10.5092Z" fill="#BBBBBB"/>
</svg>
