<svg width="14" height="14" viewBox="0 0 14 14" fill="none" xmlns="http://www.w3.org/2000/svg">
<path d="M6.99998 0.333313C3.32398 0.333313 0.333313 3.32398 0.333313 6.99998V9.76198C0.333313 10.4446 0.931313 11 1.66665 11H2.33331C2.51012 11 2.67969 10.9297 2.80472 10.8047C2.92974 10.6797 2.99998 10.5101 2.99998 10.3333V6.90465C2.99998 6.72784 2.92974 6.55827 2.80472 6.43324C2.67969 6.30822 2.51012 6.23798 2.33331 6.23798H1.72798C2.09865 3.65798 4.31865 1.66665 6.99998 1.66665C9.68131 1.66665 11.9013 3.65798 12.272 6.23798H11.6666C11.4898 6.23798 11.3203 6.30822 11.1952 6.43324C11.0702 6.55827 11 6.72784 11 6.90465V11C11 11.7353 10.402 12.3333 9.66665 12.3333H8.33331V11.6666H5.66665V13.6666H9.66665C11.1373 13.6666 12.3333 12.4706 12.3333 11C13.0686 11 13.6666 10.4446 13.6666 9.76198V6.99998C13.6666 3.32398 10.676 0.333313 6.99998 0.333313Z" fill="black"/>
</svg>
