<svg width="7" height="12" viewBox="0 0 7 12" fill="none" xmlns="http://www.w3.org/2000/svg">
<path d="M1.95838 4.574H0.496379V2.67H1.95838V0.119999H4.18538V2.67H6.22538V4.574H4.18538V7.804C4.18538 7.99667 4.20238 8.178 4.23638 8.348C4.28171 8.50667 4.36105 8.64267 4.47438 8.756C4.63305 8.93733 4.85971 9.028 5.15438 9.028C5.34705 9.028 5.50005 9.011 5.61338 8.977C5.72671 8.93167 5.83438 8.875 5.93638 8.807L6.56538 10.762C6.30471 10.8867 6.02138 10.9773 5.71538 11.034C5.42071 11.102 5.09205 11.136 4.72938 11.136C4.31005 11.136 3.93038 11.0737 3.59038 10.949C3.26171 10.813 2.98405 10.6317 2.75738 10.405C2.22471 9.895 1.95838 9.16967 1.95838 8.229V4.574Z" fill="#F7A538"/>
</svg>
