<svg width="40" height="13" viewBox="0 0 40 13" fill="none" xmlns="http://www.w3.org/2000/svg">
<path fill-rule="evenodd" clip-rule="evenodd" d="M29.1009 0.560136L28.6356 3.24969C27.2402 2.48082 24.0645 2.2989 24.0642 3.71504C24.0642 4.27763 24.7827 4.66454 25.6487 5.13087C26.9621 5.83811 28.6148 6.72802 28.6148 8.69046C28.6148 11.8263 25.2579 12.9784 23.0326 12.9784C20.8081 12.9784 19.3521 12.2712 19.3521 12.2712L19.8369 9.459C21.1719 10.5307 25.2173 10.8353 25.2173 9.1357C25.2173 8.42153 24.421 8.00036 23.4975 7.51198C22.2234 6.83812 20.7072 6.03629 20.7072 4.16029C20.7072 0.721282 24.55 0.0140495 26.1681 0.0140495C27.665 0.0140495 29.1009 0.560136 29.1009 0.560136ZM39.9807 12.7623H36.9867L36.6047 10.9019H32.4595L31.7797 12.7623H28.3806L33.2438 1.17088C33.2438 1.17088 33.5386 0.237509 34.749 0.237509H37.3703L39.9807 12.7623ZM11.339 0.237844L8.23035 8.85227L7.86249 6.99725L7.86283 6.99792L6.76563 1.36553C6.76563 1.36553 6.63296 0.237844 5.21883 0.237844H0.0795911L0.0192871 0.449914C0.0192871 0.449914 1.59088 0.776895 3.43015 1.88146L6.2631 12.7627H9.66056L14.8484 0.237844H11.339ZM17.343 12.7623H14.0822L16.1201 0.237844H19.3812L17.343 12.7623ZM33.3986 8.33198L35.1119 3.64502L36.0757 8.33198H33.3986Z" fill="#2566AF"/>
<path d="M7.86283 6.99759L6.76563 1.36519C6.76563 1.36519 6.63296 0.237509 5.21883 0.237509H0.0795911L0.0192871 0.449578C0.0192871 0.449578 2.48941 0.961492 4.85868 2.87949C7.1241 4.71274 7.86283 6.99759 7.86283 6.99759Z" fill="#E6A540"/>
</svg>
